<svg xmlns="http://www.w3.org/2000/svg" xmlns:xlink="http://www.w3.org/1999/xlink" width="190" zoomAndPan="magnify" viewBox="0 0 142.5 37.5" height="50" preserveAspectRatio="xMidYMid meet" version="1.0"><defs><g/><clipPath id="f3a5bfdb15"><path d="M 2.046875 26 L 15 26 L 15 29.835938 L 2.046875 29.835938 Z M 2.046875 26 " clip-rule="nonzero"/></clipPath><clipPath id="e5de06ebc1"><path d="M 2.046875 8.375 L 15.371094 8.375 L 15.371094 27 L 2.046875 27 Z M 2.046875 8.375 " clip-rule="nonzero"/></clipPath></defs><g clip-path="url(#f3a5bfdb15)"><path fill="#7ec8c8" d="M 2.898438 29.480469 L 2.601562 29.773438 C 2.542969 29.832031 2.453125 29.84375 2.382812 29.796875 C 2.296875 29.742188 2.28125 29.625 2.34375 29.546875 L 2.441406 29.417969 L 2.652344 29.144531 L 3.234375 28.5625 L 3.507812 28.320312 L 3.722656 28.167969 L 4.058594 27.953125 L 4.226562 27.863281 C 4.335938 27.800781 4.453125 27.75 4.574219 27.707031 L 4.820312 27.617188 L 4.949219 27.566406 C 5.105469 27.5 5.269531 27.449219 5.4375 27.417969 L 5.671875 27.375 L 5.929688 27.339844 C 6.042969 27.320312 6.160156 27.3125 6.273438 27.3125 L 6.652344 27.3125 C 6.855469 27.3125 7.050781 27.339844 7.246094 27.386719 L 7.320312 27.40625 L 7.6875 27.496094 L 8.050781 27.617188 L 8.570312 27.800781 L 8.90625 27.925781 L 9.273438 28.078125 L 9.667969 28.257812 L 9.972656 28.382812 L 10.113281 28.417969 C 10.242188 28.453125 10.378906 28.480469 10.511719 28.492188 L 10.613281 28.503906 L 11.089844 28.503906 C 11.292969 28.5 11.496094 28.472656 11.691406 28.417969 L 11.710938 28.410156 L 12.078125 28.289062 L 12.382812 28.167969 L 12.71875 27.984375 L 13.023438 27.769531 L 13.269531 27.589844 L 13.511719 27.40625 L 13.785156 27.160156 L 13.921875 27.023438 C 14.011719 26.933594 14.160156 26.941406 14.242188 27.039062 L 14.339844 27.160156 C 14.355469 27.175781 14.351562 27.207031 14.335938 27.222656 L 13.511719 28.046875 L 13.359375 28.167969 L 13.023438 28.410156 L 12.871094 28.503906 L 12.78125 28.5625 L 12.628906 28.65625 L 12.445312 28.777344 L 12.199219 28.929688 L 12.015625 29.023438 L 11.621094 29.175781 L 11.316406 29.296875 C 11.195312 29.335938 11.070312 29.367188 10.941406 29.382812 L 10.890625 29.386719 L 10.613281 29.417969 L 10.125 29.417969 L 9.761719 29.386719 L 9.515625 29.359375 L 9.210938 29.296875 L 8.875 29.203125 L 8.664062 29.144531 L 8.449219 29.050781 L 8.113281 28.898438 L 7.746094 28.777344 L 7.644531 28.730469 C 7.53125 28.679688 7.414062 28.640625 7.292969 28.605469 L 7.136719 28.5625 L 6.925781 28.503906 C 6.800781 28.460938 6.675781 28.433594 6.550781 28.414062 L 6.3125 28.382812 L 6.070312 28.351562 L 5.339844 28.351562 L 5.03125 28.382812 L 4.667969 28.441406 L 4.605469 28.460938 C 4.445312 28.507812 4.285156 28.574219 4.136719 28.65625 L 4.027344 28.71875 L 3.570312 28.960938 L 3.265625 29.175781 Z M 2.898438 29.480469 " fill-opacity="1" fill-rule="nonzero"/></g><g clip-path="url(#e5de06ebc1)"><path fill="#7ec8c8" d="M 2.226562 24.355469 C 2.226562 24.355469 2.117188 24.796875 2.074219 25.085938 C 1.453125 29.441406 13.398438 23.59375 13.398438 23.59375 L 13.824219 23.363281 C 13.84375 23.355469 13.863281 23.34375 13.878906 23.328125 L 13.9375 23.285156 C 14.015625 23.230469 14.0625 23.140625 14.0625 23.042969 C 14.0625 22.902344 14.03125 22.761719 13.976562 22.632812 L 13.96875 22.617188 L 13.960938 22.589844 C 13.925781 22.484375 13.878906 22.386719 13.816406 22.296875 L 13.785156 22.25 L 13.722656 22.167969 C 13.703125 22.140625 13.6875 22.113281 13.671875 22.085938 C 13.648438 22.035156 13.613281 21.984375 13.570312 21.945312 L 13.449219 21.824219 L 13.414062 21.777344 C 13.355469 21.707031 13.292969 21.644531 13.222656 21.585938 L 13.175781 21.550781 L 13.125 21.507812 C 13.058594 21.453125 12.984375 21.40625 12.910156 21.371094 L 12.839844 21.335938 L 12.765625 21.296875 C 12.695312 21.261719 12.617188 21.234375 12.542969 21.210938 L 12.324219 21.152344 L 12.136719 21.117188 C 12.058594 21.101562 11.976562 21.09375 11.898438 21.09375 L 11.589844 21.09375 L 10.738281 21.121094 L 10.277344 21.152344 L 10.167969 21.152344 C 10.058594 21.152344 9.953125 21.167969 9.847656 21.195312 L 9.667969 21.246094 L 9.394531 21.304688 L 9.027344 21.398438 C 8.832031 21.457031 8.59375 21.382812 8.414062 21.480469 C 8.363281 21.507812 8.320312 21.558594 8.296875 21.640625 C 8.230469 21.859375 8.042969 21.84375 7.9375 21.816406 C 7.894531 21.804688 7.84375 21.804688 7.800781 21.820312 C 7.6875 21.867188 7.539062 21.703125 7.433594 21.765625 C 7.386719 21.796875 7.320312 21.867188 7.230469 22.007812 C 7.203125 22.042969 7.183594 22.078125 7.160156 22.105469 C 7.046875 22.265625 6.710938 22.210938 6.527344 22.28125 L 6.191406 22.402344 L 5.976562 22.464844 C 5.957031 22.46875 5.945312 22.4375 5.964844 22.429688 C 6.359375 22.246094 7.324219 21.789062 5.613281 22.496094 C 3.953125 23.179688 4.832031 22.769531 5.25 22.578125 C 5.332031 22.539062 5.332031 22.429688 5.308594 22.34375 C 5.285156 22.273438 5.230469 22.207031 5.15625 22.222656 C 4.640625 22.332031 3.078125 22.65625 5.308594 22.007812 C 7.394531 21.402344 6.199219 21.625 5.625 21.738281 C 5.535156 21.757812 5.46875 21.65625 5.519531 21.578125 C 5.609375 21.460938 5.550781 21.292969 5.414062 21.238281 C 5.214844 21.152344 5.109375 21.042969 5.917969 21.0625 C 6.953125 21.085938 6.484375 20.898438 6.242188 20.820312 C 6.167969 20.796875 6.09375 20.769531 6.027344 20.730469 C 5.871094 20.628906 5.65625 20.445312 6.40625 20.511719 C 6.925781 20.558594 6.964844 20.492188 6.882812 20.417969 C 6.773438 20.320312 6.730469 20.15625 6.832031 20.054688 C 7.050781 19.878906 7.4375 19.945312 7.585938 19.707031 C 7.609375 19.675781 7.566406 19.632812 7.410156 19.566406 C 7.136719 19.453125 7.230469 19.402344 7.378906 19.375 C 7.578125 19.34375 7.78125 19.304688 7.957031 19.207031 L 8.082031 19.140625 L 8.386719 18.957031 L 9.058594 18.621094 L 9.457031 18.4375 L 9.789062 18.316406 L 10.1875 18.195312 L 10.582031 18.074219 L 11.042969 17.949219 L 11.5 17.859375 L 12.199219 17.738281 L 12.902344 17.613281 L 13.421875 17.585938 C 13.683594 17.585938 13.90625 17.390625 13.949219 17.132812 L 15.007812 10.234375 L 15.066406 9.835938 L 15.128906 9.378906 L 15.265625 8.480469 C 15.269531 8.441406 15.226562 8.410156 15.191406 8.433594 L 14.730469 8.800781 L 14.425781 9.042969 L 14.152344 9.289062 L 13.664062 9.683594 L 13.269531 10.050781 L 12.839844 10.386719 L 12.503906 10.628906 L 12.140625 10.933594 L 11.621094 11.332031 L 10.796875 12.035156 L 10.25 12.550781 L 8.570312 14.230469 C 8.570312 14.230469 8.210938 14.578125 7.929688 14.871094 C 7.648438 15.160156 7.136719 15.722656 7.136719 15.722656 L 6.527344 16.363281 C 6.234375 16.695312 5.824219 17.25 5.824219 17.25 C 5.824219 17.25 5.546875 17.636719 5.367188 17.890625 C 5.265625 18.035156 5.132812 18.226562 5.03125 18.371094 C 4.933594 18.515625 4.867188 18.683594 4.8125 18.847656 C 4.742188 19.050781 4.621094 19.292969 4.421875 19.292969 C 4.085938 19.292969 4.542969 19.933594 4.058594 19.933594 C 3.570312 19.933594 3.386719 20.605469 3.691406 20.605469 C 3.996094 20.605469 4.148438 21.121094 3.386719 21.183594 C 2.972656 21.214844 2.910156 21.429688 2.9375 21.617188 C 2.96875 21.824219 3.160156 21.953125 3.308594 22.105469 C 3.472656 22.277344 3.535156 22.519531 2.777344 22.648438 C 2.574219 22.683594 2.429688 22.726562 2.332031 22.777344 C 1.847656 23.023438 2.386719 23.835938 2.226562 24.355469 Z M 2.226562 24.355469 " fill-opacity="1" fill-rule="nonzero"/></g><g fill="#7ec8c8" fill-opacity="1"><g transform="translate(20.36783, 22.203947)"><g><path d="M 2.546875 1.625 L 3.140625 1.625 C 3.359375 1.625 3.46875 1.535156 3.46875 1.359375 C 3.46875 1.171875 3.363281 1.078125 3.15625 1.078125 L 2.65625 1.078125 L 2.65625 0.484375 L 2.828125 0.078125 C 2.117188 -0.00390625 1.53125 -0.238281 1.0625 -0.625 C 0.601562 -1.019531 0.335938 -1.570312 0.265625 -2.28125 L 1.890625 -2.28125 C 1.953125 -1.976562 2.109375 -1.738281 2.359375 -1.5625 C 2.617188 -1.382812 2.953125 -1.296875 3.359375 -1.296875 C 3.867188 -1.296875 4.226562 -1.378906 4.4375 -1.546875 C 4.65625 -1.722656 4.765625 -1.945312 4.765625 -2.21875 C 4.765625 -2.40625 4.703125 -2.554688 4.578125 -2.671875 C 4.460938 -2.785156 4.304688 -2.875 4.109375 -2.9375 C 3.910156 -3.007812 3.6875 -3.066406 3.4375 -3.109375 C 3.1875 -3.160156 2.925781 -3.21875 2.65625 -3.28125 C 2.382812 -3.34375 2.125 -3.421875 1.875 -3.515625 C 1.625 -3.609375 1.398438 -3.734375 1.203125 -3.890625 C 1.003906 -4.054688 0.84375 -4.265625 0.71875 -4.515625 C 0.601562 -4.773438 0.546875 -5.09375 0.546875 -5.46875 C 0.546875 -5.84375 0.613281 -6.164062 0.75 -6.4375 C 0.894531 -6.71875 1.097656 -6.953125 1.359375 -7.140625 C 1.617188 -7.328125 1.921875 -7.46875 2.265625 -7.5625 C 2.609375 -7.65625 2.972656 -7.703125 3.359375 -7.703125 C 3.828125 -7.703125 4.234375 -7.644531 4.578125 -7.53125 C 4.921875 -7.414062 5.210938 -7.253906 5.453125 -7.046875 C 5.691406 -6.847656 5.878906 -6.613281 6.015625 -6.34375 C 6.148438 -6.070312 6.242188 -5.78125 6.296875 -5.46875 L 4.65625 -5.46875 C 4.601562 -5.71875 4.472656 -5.914062 4.265625 -6.0625 C 4.054688 -6.21875 3.773438 -6.296875 3.421875 -6.296875 C 3.003906 -6.296875 2.695312 -6.210938 2.5 -6.046875 C 2.3125 -5.878906 2.21875 -5.6875 2.21875 -5.46875 C 2.21875 -5.28125 2.28125 -5.125 2.40625 -5 C 2.53125 -4.882812 2.6875 -4.785156 2.875 -4.703125 C 3.070312 -4.628906 3.296875 -4.566406 3.546875 -4.515625 C 3.804688 -4.460938 4.066406 -4.398438 4.328125 -4.328125 C 4.597656 -4.265625 4.859375 -4.1875 5.109375 -4.09375 C 5.367188 -4 5.59375 -3.875 5.78125 -3.71875 C 5.976562 -3.5625 6.140625 -3.363281 6.265625 -3.125 C 6.390625 -2.882812 6.453125 -2.582031 6.453125 -2.21875 C 6.453125 -1.914062 6.390625 -1.628906 6.265625 -1.359375 C 6.148438 -1.085938 5.976562 -0.847656 5.75 -0.640625 C 5.519531 -0.441406 5.234375 -0.273438 4.890625 -0.140625 C 4.546875 -0.015625 4.148438 0.0625 3.703125 0.09375 L 3.578125 0.375 C 3.828125 0.40625 4.039062 0.5 4.21875 0.65625 C 4.40625 0.820312 4.5 1.054688 4.5 1.359375 C 4.5 1.710938 4.394531 1.988281 4.1875 2.1875 C 3.976562 2.394531 3.6875 2.5 3.3125 2.5 L 2.546875 2.5 Z M 2.546875 1.625 "/></g></g></g><g fill="#7ec8c8" fill-opacity="1"><g transform="translate(27.147573, 22.203947)"><g><path d="M 0.65625 -5.75 L 2.171875 -5.75 L 2.171875 0 L 0.65625 0 Z M 1.40625 -6.34375 C 1.164062 -6.34375 0.960938 -6.425781 0.796875 -6.59375 C 0.628906 -6.757812 0.546875 -6.96875 0.546875 -7.21875 C 0.546875 -7.457031 0.628906 -7.660156 0.796875 -7.828125 C 0.960938 -7.992188 1.164062 -8.078125 1.40625 -8.078125 C 1.65625 -8.078125 1.863281 -7.992188 2.03125 -7.828125 C 2.195312 -7.660156 2.28125 -7.457031 2.28125 -7.21875 C 2.28125 -6.96875 2.195312 -6.757812 2.03125 -6.59375 C 1.863281 -6.425781 1.65625 -6.34375 1.40625 -6.34375 Z M 1.40625 -6.34375 "/></g></g></g><g fill="#7ec8c8" fill-opacity="1"><g transform="translate(29.967947, 22.203947)"><g><path d="M 0.65625 -5.75 L 1.953125 -5.75 L 2.109375 -5.09375 L 2.171875 -5.09375 C 2.335938 -5.34375 2.535156 -5.515625 2.765625 -5.609375 C 2.992188 -5.703125 3.25 -5.75 3.53125 -5.75 L 4.234375 -5.75 L 4.234375 -4.28125 L 3.625 -4.28125 C 3.164062 -4.28125 2.804688 -4.15625 2.546875 -3.90625 C 2.296875 -3.65625 2.171875 -3.3125 2.171875 -2.875 L 2.171875 0 L 0.65625 0 Z M 0.65625 -5.75 "/></g></g></g><g fill="#7ec8c8" fill-opacity="1"><g transform="translate(34.361224, 22.203947)"><g><path d="M 0.703125 -7.59375 L 2.21875 -7.59375 L 2.21875 -3.203125 L 4.34375 -5.75 L 6.125 -5.75 L 3.796875 -2.921875 L 6.296875 0 L 4.5 0 L 2.21875 -2.65625 L 2.21875 0 L 0.703125 0 Z M 0.703125 -7.59375 "/></g></g></g><g fill="#7ec8c8" fill-opacity="1"><g transform="translate(40.327372, 22.203947)"><g><path d="M 3.203125 0.109375 C 2.765625 0.109375 2.367188 0.0390625 2.015625 -0.09375 C 1.671875 -0.226562 1.375 -0.421875 1.125 -0.671875 C 0.882812 -0.921875 0.695312 -1.226562 0.5625 -1.59375 C 0.4375 -1.96875 0.375 -2.394531 0.375 -2.875 C 0.375 -3.351562 0.4375 -3.773438 0.5625 -4.140625 C 0.695312 -4.515625 0.882812 -4.828125 1.125 -5.078125 C 1.375 -5.328125 1.671875 -5.519531 2.015625 -5.65625 C 2.367188 -5.789062 2.765625 -5.859375 3.203125 -5.859375 C 3.617188 -5.859375 3.992188 -5.785156 4.328125 -5.640625 C 4.671875 -5.503906 4.960938 -5.304688 5.203125 -5.046875 C 5.453125 -4.785156 5.640625 -4.476562 5.765625 -4.125 C 5.898438 -3.78125 5.96875 -3.398438 5.96875 -2.984375 C 5.96875 -2.898438 5.960938 -2.820312 5.953125 -2.75 C 5.941406 -2.675781 5.9375 -2.613281 5.9375 -2.5625 C 5.925781 -2.5 5.914062 -2.441406 5.90625 -2.390625 L 1.953125 -2.390625 C 2.003906 -2.054688 2.128906 -1.78125 2.328125 -1.5625 C 2.523438 -1.351562 2.816406 -1.25 3.203125 -1.25 C 3.492188 -1.25 3.707031 -1.296875 3.84375 -1.390625 C 3.988281 -1.492188 4.117188 -1.628906 4.234375 -1.796875 L 5.859375 -1.796875 C 5.796875 -1.546875 5.695312 -1.304688 5.5625 -1.078125 C 5.425781 -0.847656 5.25 -0.644531 5.03125 -0.46875 C 4.820312 -0.289062 4.566406 -0.148438 4.265625 -0.046875 C 3.960938 0.0546875 3.609375 0.109375 3.203125 0.109375 Z M 4.390625 -3.53125 C 4.359375 -3.644531 4.3125 -3.757812 4.25 -3.875 C 4.1875 -4 4.109375 -4.109375 4.015625 -4.203125 C 3.921875 -4.296875 3.800781 -4.367188 3.65625 -4.421875 C 3.519531 -4.472656 3.367188 -4.5 3.203125 -4.5 C 2.847656 -4.5 2.570312 -4.40625 2.375 -4.21875 C 2.175781 -4.03125 2.035156 -3.800781 1.953125 -3.53125 Z M 4.390625 -3.53125 "/></g></g></g><g fill="#7ec8c8" fill-opacity="1"><g transform="translate(46.673218, 22.203947)"><g><path d="M 2.921875 0 C 2.328125 0 1.878906 -0.144531 1.578125 -0.4375 C 1.285156 -0.726562 1.140625 -1.144531 1.140625 -1.6875 L 1.140625 -4.34375 L 0.21875 -4.34375 L 0.21875 -5.75 L 1.140625 -5.75 L 1.359375 -7.265625 L 2.65625 -7.265625 L 2.65625 -5.75 L 4.015625 -5.75 L 4.015625 -4.34375 L 2.65625 -4.34375 L 2.65625 -1.953125 C 2.65625 -1.785156 2.703125 -1.648438 2.796875 -1.546875 C 2.898438 -1.453125 3.035156 -1.40625 3.203125 -1.40625 L 4.015625 -1.40625 L 4.015625 0 Z M 2.921875 0 "/></g></g></g><g fill="#7ec8c8" fill-opacity="1"><g transform="translate(51.120727, 22.203947)"><g><path d="M 0.703125 -7.59375 L 2.21875 -7.59375 L 2.21875 0 L 0.703125 0 Z M 0.703125 -7.59375 "/></g></g></g><g fill="#7ec8c8" fill-opacity="1"><g transform="translate(54.049575, 22.203947)"><g><path d="M 3.203125 0.109375 C 2.765625 0.109375 2.367188 0.0390625 2.015625 -0.09375 C 1.671875 -0.226562 1.375 -0.421875 1.125 -0.671875 C 0.882812 -0.921875 0.695312 -1.226562 0.5625 -1.59375 C 0.4375 -1.96875 0.375 -2.394531 0.375 -2.875 C 0.375 -3.351562 0.4375 -3.773438 0.5625 -4.140625 C 0.695312 -4.515625 0.882812 -4.828125 1.125 -5.078125 C 1.375 -5.328125 1.671875 -5.519531 2.015625 -5.65625 C 2.367188 -5.789062 2.765625 -5.859375 3.203125 -5.859375 C 3.617188 -5.859375 3.992188 -5.785156 4.328125 -5.640625 C 4.671875 -5.503906 4.960938 -5.304688 5.203125 -5.046875 C 5.453125 -4.785156 5.640625 -4.476562 5.765625 -4.125 C 5.898438 -3.78125 5.96875 -3.398438 5.96875 -2.984375 C 5.96875 -2.898438 5.960938 -2.820312 5.953125 -2.75 C 5.941406 -2.675781 5.9375 -2.613281 5.9375 -2.5625 C 5.925781 -2.5 5.914062 -2.441406 5.90625 -2.390625 L 1.953125 -2.390625 C 2.003906 -2.054688 2.128906 -1.78125 2.328125 -1.5625 C 2.523438 -1.351562 2.816406 -1.25 3.203125 -1.25 C 3.492188 -1.25 3.707031 -1.296875 3.84375 -1.390625 C 3.988281 -1.492188 4.117188 -1.628906 4.234375 -1.796875 L 5.859375 -1.796875 C 5.796875 -1.546875 5.695312 -1.304688 5.5625 -1.078125 C 5.425781 -0.847656 5.25 -0.644531 5.03125 -0.46875 C 4.820312 -0.289062 4.566406 -0.148438 4.265625 -0.046875 C 3.960938 0.0546875 3.609375 0.109375 3.203125 0.109375 Z M 4.390625 -3.53125 C 4.359375 -3.644531 4.3125 -3.757812 4.25 -3.875 C 4.1875 -4 4.109375 -4.109375 4.015625 -4.203125 C 3.921875 -4.296875 3.800781 -4.367188 3.65625 -4.421875 C 3.519531 -4.472656 3.367188 -4.5 3.203125 -4.5 C 2.847656 -4.5 2.570312 -4.40625 2.375 -4.21875 C 2.175781 -4.03125 2.035156 -3.800781 1.953125 -3.53125 Z M 4.390625 -3.53125 "/></g></g></g><g fill="#7ec8c8" fill-opacity="1"><g transform="translate(60.395422, 22.203947)"><g><path d="M 0.65625 -5.75 L 1.953125 -5.75 L 2.109375 -5.09375 L 2.171875 -5.09375 C 2.335938 -5.34375 2.535156 -5.515625 2.765625 -5.609375 C 2.992188 -5.703125 3.25 -5.75 3.53125 -5.75 L 4.234375 -5.75 L 4.234375 -4.28125 L 3.625 -4.28125 C 3.164062 -4.28125 2.804688 -4.15625 2.546875 -3.90625 C 2.296875 -3.65625 2.171875 -3.3125 2.171875 -2.875 L 2.171875 0 L 0.65625 0 Z M 0.65625 -5.75 "/></g></g></g><g fill="#7ec8c8" fill-opacity="1"><g transform="translate(64.463186, 22.203947)"><g/></g></g><g fill="#7ec8c8" fill-opacity="1"><g transform="translate(66.632625, 22.203947)"><g><path d="M 2.5 -2.609375 L -0.15625 -7.59375 L 1.578125 -7.59375 L 3.28125 -4.28125 L 3.328125 -4.28125 L 5.046875 -7.59375 L 6.78125 -7.59375 L 4.125 -2.609375 L 4.125 0 L 2.5 0 Z M 2.5 -2.609375 "/></g></g></g><g fill="#7ec8c8" fill-opacity="1"><g transform="translate(72.381632, 22.203947)"><g><path d="M 3.203125 0.109375 C 2.765625 0.109375 2.367188 0.0390625 2.015625 -0.09375 C 1.671875 -0.226562 1.375 -0.421875 1.125 -0.671875 C 0.882812 -0.921875 0.695312 -1.226562 0.5625 -1.59375 C 0.4375 -1.96875 0.375 -2.394531 0.375 -2.875 C 0.375 -3.351562 0.4375 -3.773438 0.5625 -4.140625 C 0.695312 -4.515625 0.882812 -4.828125 1.125 -5.078125 C 1.375 -5.328125 1.671875 -5.519531 2.015625 -5.65625 C 2.367188 -5.789062 2.765625 -5.859375 3.203125 -5.859375 C 3.617188 -5.859375 3.992188 -5.785156 4.328125 -5.640625 C 4.671875 -5.503906 4.960938 -5.304688 5.203125 -5.046875 C 5.453125 -4.785156 5.640625 -4.476562 5.765625 -4.125 C 5.898438 -3.78125 5.96875 -3.398438 5.96875 -2.984375 C 5.96875 -2.898438 5.960938 -2.820312 5.953125 -2.75 C 5.941406 -2.675781 5.9375 -2.613281 5.9375 -2.5625 C 5.925781 -2.5 5.914062 -2.441406 5.90625 -2.390625 L 1.953125 -2.390625 C 2.003906 -2.054688 2.128906 -1.78125 2.328125 -1.5625 C 2.523438 -1.351562 2.816406 -1.25 3.203125 -1.25 C 3.492188 -1.25 3.707031 -1.296875 3.84375 -1.390625 C 3.988281 -1.492188 4.117188 -1.628906 4.234375 -1.796875 L 5.859375 -1.796875 C 5.796875 -1.546875 5.695312 -1.304688 5.5625 -1.078125 C 5.425781 -0.847656 5.25 -0.644531 5.03125 -0.46875 C 4.820312 -0.289062 4.566406 -0.148438 4.265625 -0.046875 C 3.960938 0.0546875 3.609375 0.109375 3.203125 0.109375 Z M 4.390625 -3.53125 C 4.359375 -3.644531 4.3125 -3.757812 4.25 -3.875 C 4.1875 -4 4.109375 -4.109375 4.015625 -4.203125 C 3.921875 -4.296875 3.800781 -4.367188 3.65625 -4.421875 C 3.519531 -4.472656 3.367188 -4.5 3.203125 -4.5 C 2.847656 -4.5 2.570312 -4.40625 2.375 -4.21875 C 2.175781 -4.03125 2.035156 -3.800781 1.953125 -3.53125 Z M 4.390625 -3.53125 "/></g></g></g><g fill="#7ec8c8" fill-opacity="1"><g transform="translate(78.727478, 22.203947)"><g><path d="M 0.703125 -7.59375 L 2.21875 -7.59375 L 2.21875 0 L 0.703125 0 Z M 0.703125 -7.59375 "/></g></g></g><g fill="#7ec8c8" fill-opacity="1"><g transform="translate(81.656326, 22.203947)"><g><path d="M 0.703125 -7.59375 L 2.21875 -7.59375 L 2.21875 -3.203125 L 4.34375 -5.75 L 6.125 -5.75 L 3.796875 -2.921875 L 6.296875 0 L 4.5 0 L 2.21875 -2.65625 L 2.21875 0 L 0.703125 0 Z M 0.703125 -7.59375 "/></g></g></g><g fill="#7ec8c8" fill-opacity="1"><g transform="translate(87.622473, 22.203947)"><g><path d="M 3.203125 0.109375 C 2.765625 0.109375 2.367188 0.0390625 2.015625 -0.09375 C 1.671875 -0.226562 1.375 -0.421875 1.125 -0.671875 C 0.882812 -0.921875 0.695312 -1.226562 0.5625 -1.59375 C 0.4375 -1.96875 0.375 -2.394531 0.375 -2.875 C 0.375 -3.351562 0.4375 -3.773438 0.5625 -4.140625 C 0.695312 -4.515625 0.882812 -4.828125 1.125 -5.078125 C 1.375 -5.328125 1.671875 -5.519531 2.015625 -5.65625 C 2.367188 -5.789062 2.765625 -5.859375 3.203125 -5.859375 C 3.617188 -5.859375 3.992188 -5.785156 4.328125 -5.640625 C 4.671875 -5.503906 4.960938 -5.304688 5.203125 -5.046875 C 5.453125 -4.785156 5.640625 -4.476562 5.765625 -4.125 C 5.898438 -3.78125 5.96875 -3.398438 5.96875 -2.984375 C 5.96875 -2.898438 5.960938 -2.820312 5.953125 -2.75 C 5.941406 -2.675781 5.9375 -2.613281 5.9375 -2.5625 C 5.925781 -2.5 5.914062 -2.441406 5.90625 -2.390625 L 1.953125 -2.390625 C 2.003906 -2.054688 2.128906 -1.78125 2.328125 -1.5625 C 2.523438 -1.351562 2.816406 -1.25 3.203125 -1.25 C 3.492188 -1.25 3.707031 -1.296875 3.84375 -1.390625 C 3.988281 -1.492188 4.117188 -1.628906 4.234375 -1.796875 L 5.859375 -1.796875 C 5.796875 -1.546875 5.695312 -1.304688 5.5625 -1.078125 C 5.425781 -0.847656 5.25 -0.644531 5.03125 -0.46875 C 4.820312 -0.289062 4.566406 -0.148438 4.265625 -0.046875 C 3.960938 0.0546875 3.609375 0.109375 3.203125 0.109375 Z M 4.390625 -3.53125 C 4.359375 -3.644531 4.3125 -3.757812 4.25 -3.875 C 4.1875 -4 4.109375 -4.109375 4.015625 -4.203125 C 3.921875 -4.296875 3.800781 -4.367188 3.65625 -4.421875 C 3.519531 -4.472656 3.367188 -4.5 3.203125 -4.5 C 2.847656 -4.5 2.570312 -4.40625 2.375 -4.21875 C 2.175781 -4.03125 2.035156 -3.800781 1.953125 -3.53125 Z M 4.390625 -3.53125 "/></g></g></g><g fill="#7ec8c8" fill-opacity="1"><g transform="translate(93.96832, 22.203947)"><g><path d="M 0.65625 -5.75 L 1.953125 -5.75 L 2.109375 -5.09375 L 2.171875 -5.09375 C 2.359375 -5.34375 2.582031 -5.53125 2.84375 -5.65625 C 3.101562 -5.789062 3.382812 -5.859375 3.6875 -5.859375 C 4 -5.859375 4.285156 -5.804688 4.546875 -5.703125 C 4.804688 -5.597656 5.023438 -5.441406 5.203125 -5.234375 C 5.390625 -5.035156 5.535156 -4.789062 5.640625 -4.5 C 5.742188 -4.21875 5.796875 -3.894531 5.796875 -3.53125 L 5.796875 0 L 4.28125 0 L 4.28125 -3.3125 C 4.28125 -3.6875 4.1875 -3.976562 4 -4.1875 C 3.820312 -4.394531 3.570312 -4.5 3.25 -4.5 C 2.925781 -4.5 2.664062 -4.390625 2.46875 -4.171875 C 2.269531 -3.953125 2.171875 -3.664062 2.171875 -3.3125 L 2.171875 0 L 0.65625 0 Z M 0.65625 -5.75 "/></g></g></g><g fill="#7ec8c8" fill-opacity="1"><g transform="translate(100.368398, 22.203947)"><g/></g></g><g fill="#7ec8c8" fill-opacity="1"><g transform="translate(102.863349, 22.203947)"><g><path d="M 0.765625 -7.59375 L 2.390625 -7.59375 L 2.390625 -4.234375 L 5.09375 -7.59375 L 7 -7.59375 L 3.953125 -3.84375 L 7.15625 0 L 5.265625 0 L 2.390625 -3.46875 L 2.390625 0 L 0.765625 0 Z M 0.765625 -7.59375 "/></g></g></g><g fill="#7ec8c8" fill-opacity="1"><g transform="translate(109.480296, 22.203947)"><g><path d="M 2.765625 0.109375 C 2.453125 0.109375 2.164062 0.0546875 1.90625 -0.046875 C 1.644531 -0.148438 1.421875 -0.300781 1.234375 -0.5 C 1.054688 -0.707031 0.914062 -0.953125 0.8125 -1.234375 C 0.707031 -1.523438 0.65625 -1.851562 0.65625 -2.21875 L 0.65625 -5.75 L 2.171875 -5.75 L 2.171875 -2.4375 C 2.171875 -2.050781 2.257812 -1.753906 2.4375 -1.546875 C 2.625 -1.347656 2.878906 -1.25 3.203125 -1.25 C 3.523438 -1.25 3.785156 -1.359375 3.984375 -1.578125 C 4.179688 -1.796875 4.28125 -2.082031 4.28125 -2.4375 L 4.28125 -5.75 L 5.796875 -5.75 L 5.796875 0 L 4.5 0 L 4.34375 -0.65625 L 4.28125 -0.65625 C 4.09375 -0.40625 3.867188 -0.210938 3.609375 -0.078125 C 3.347656 0.046875 3.066406 0.109375 2.765625 0.109375 Z M 2.765625 0.109375 "/></g></g></g><g fill="#7ec8c8" fill-opacity="1"><g transform="translate(115.934617, 22.203947)"><g><path d="M 0.65625 -5.75 L 1.953125 -5.75 L 2.109375 -5.09375 L 2.171875 -5.09375 C 2.328125 -5.28125 2.535156 -5.453125 2.796875 -5.609375 C 3.054688 -5.773438 3.390625 -5.859375 3.796875 -5.859375 C 4.160156 -5.859375 4.492188 -5.789062 4.796875 -5.65625 C 5.109375 -5.53125 5.375 -5.34375 5.59375 -5.09375 C 5.8125 -4.84375 5.984375 -4.53125 6.109375 -4.15625 C 6.234375 -3.78125 6.296875 -3.351562 6.296875 -2.875 C 6.296875 -2.382812 6.234375 -1.953125 6.109375 -1.578125 C 5.984375 -1.210938 5.8125 -0.898438 5.59375 -0.640625 C 5.375 -0.390625 5.109375 -0.203125 4.796875 -0.078125 C 4.492188 0.046875 4.160156 0.109375 3.796875 0.109375 C 3.578125 0.109375 3.378906 0.0820312 3.203125 0.03125 C 3.035156 -0.0078125 2.882812 -0.0664062 2.75 -0.140625 C 2.625 -0.210938 2.515625 -0.289062 2.421875 -0.375 C 2.335938 -0.457031 2.269531 -0.53125 2.21875 -0.59375 L 2.171875 -0.59375 L 2.171875 2.171875 L 0.65625 2.171875 Z M 3.46875 -1.25 C 3.644531 -1.25 3.8125 -1.28125 3.96875 -1.34375 C 4.125 -1.40625 4.257812 -1.5 4.375 -1.625 C 4.5 -1.757812 4.59375 -1.929688 4.65625 -2.140625 C 4.726562 -2.347656 4.765625 -2.59375 4.765625 -2.875 C 4.765625 -3.15625 4.726562 -3.398438 4.65625 -3.609375 C 4.59375 -3.816406 4.5 -3.984375 4.375 -4.109375 C 4.257812 -4.242188 4.125 -4.34375 3.96875 -4.40625 C 3.8125 -4.46875 3.644531 -4.5 3.46875 -4.5 C 3.289062 -4.5 3.125 -4.46875 2.96875 -4.40625 C 2.8125 -4.34375 2.671875 -4.242188 2.546875 -4.109375 C 2.429688 -3.984375 2.335938 -3.816406 2.265625 -3.609375 C 2.203125 -3.398438 2.171875 -3.15625 2.171875 -2.875 C 2.171875 -2.59375 2.203125 -2.347656 2.265625 -2.140625 C 2.335938 -1.929688 2.429688 -1.757812 2.546875 -1.625 C 2.671875 -1.5 2.8125 -1.40625 2.96875 -1.34375 C 3.125 -1.28125 3.289062 -1.25 3.46875 -1.25 Z M 3.46875 -1.25 "/></g></g></g><g fill="#7ec8c8" fill-opacity="1"><g transform="translate(122.605886, 22.203947)"><g><path d="M 2.328125 0.109375 C 2.015625 0.109375 1.734375 0.0664062 1.484375 -0.015625 C 1.234375 -0.109375 1.019531 -0.234375 0.84375 -0.390625 C 0.675781 -0.554688 0.546875 -0.75 0.453125 -0.96875 C 0.367188 -1.1875 0.328125 -1.425781 0.328125 -1.6875 C 0.328125 -1.945312 0.375 -2.179688 0.46875 -2.390625 C 0.5625 -2.609375 0.703125 -2.796875 0.890625 -2.953125 C 1.078125 -3.117188 1.304688 -3.242188 1.578125 -3.328125 C 1.859375 -3.421875 2.179688 -3.46875 2.546875 -3.46875 L 3.90625 -3.46875 L 3.90625 -3.734375 C 3.90625 -4.015625 3.816406 -4.21875 3.640625 -4.34375 C 3.472656 -4.476562 3.234375 -4.546875 2.921875 -4.546875 C 2.710938 -4.546875 2.53125 -4.5 2.375 -4.40625 C 2.21875 -4.3125 2.113281 -4.195312 2.0625 -4.0625 L 0.546875 -4.0625 C 0.597656 -4.289062 0.6875 -4.507812 0.8125 -4.71875 C 0.9375 -4.9375 1.097656 -5.128906 1.296875 -5.296875 C 1.492188 -5.460938 1.726562 -5.597656 2 -5.703125 C 2.28125 -5.804688 2.609375 -5.859375 2.984375 -5.859375 C 3.742188 -5.859375 4.335938 -5.671875 4.765625 -5.296875 C 5.203125 -4.929688 5.421875 -4.394531 5.421875 -3.6875 L 5.421875 0 L 4.125 0 L 3.953125 -0.65625 L 3.90625 -0.65625 C 3.84375 -0.570312 3.769531 -0.484375 3.6875 -0.390625 C 3.601562 -0.304688 3.492188 -0.222656 3.359375 -0.140625 C 3.234375 -0.0664062 3.082031 -0.0078125 2.90625 0.03125 C 2.738281 0.0820312 2.546875 0.109375 2.328125 0.109375 Z M 2.71875 -1.140625 C 3.070312 -1.140625 3.359375 -1.238281 3.578125 -1.4375 C 3.796875 -1.632812 3.90625 -1.894531 3.90625 -2.21875 L 3.90625 -2.390625 L 2.609375 -2.390625 C 2.328125 -2.390625 2.128906 -2.328125 2.015625 -2.203125 C 1.898438 -2.085938 1.84375 -1.953125 1.84375 -1.796875 C 1.84375 -1.597656 1.910156 -1.4375 2.046875 -1.3125 C 2.179688 -1.195312 2.40625 -1.140625 2.71875 -1.140625 Z M 2.71875 -1.140625 "/></g></g></g><g fill="#7ec8c8" fill-opacity="1"><g transform="translate(128.626299, 22.203947)"><g><path d="M 2.765625 0.109375 C 2.347656 0.109375 1.984375 0.0625 1.671875 -0.03125 C 1.367188 -0.132812 1.117188 -0.273438 0.921875 -0.453125 C 0.722656 -0.628906 0.566406 -0.832031 0.453125 -1.0625 C 0.335938 -1.289062 0.257812 -1.535156 0.21875 -1.796875 L 1.84375 -1.796875 C 1.875 -1.648438 1.96875 -1.519531 2.125 -1.40625 C 2.28125 -1.300781 2.492188 -1.25 2.765625 -1.25 C 3.140625 -1.25 3.394531 -1.289062 3.53125 -1.375 C 3.664062 -1.46875 3.734375 -1.570312 3.734375 -1.6875 C 3.734375 -1.820312 3.648438 -1.921875 3.484375 -1.984375 C 3.328125 -2.054688 3.125 -2.117188 2.875 -2.171875 C 2.632812 -2.222656 2.367188 -2.273438 2.078125 -2.328125 C 1.796875 -2.390625 1.53125 -2.484375 1.28125 -2.609375 C 1.039062 -2.742188 0.835938 -2.929688 0.671875 -3.171875 C 0.515625 -3.410156 0.4375 -3.726562 0.4375 -4.125 C 0.4375 -4.363281 0.484375 -4.585938 0.578125 -4.796875 C 0.679688 -5.015625 0.832031 -5.195312 1.03125 -5.34375 C 1.226562 -5.5 1.46875 -5.625 1.75 -5.71875 C 2.039062 -5.8125 2.378906 -5.859375 2.765625 -5.859375 C 3.171875 -5.859375 3.519531 -5.8125 3.8125 -5.71875 C 4.113281 -5.625 4.363281 -5.492188 4.5625 -5.328125 C 4.757812 -5.160156 4.910156 -4.96875 5.015625 -4.75 C 5.128906 -4.539062 5.210938 -4.3125 5.265625 -4.0625 L 3.625 -4.0625 C 3.601562 -4.175781 3.53125 -4.273438 3.40625 -4.359375 C 3.28125 -4.453125 3.066406 -4.5 2.765625 -4.5 C 2.515625 -4.5 2.320312 -4.460938 2.1875 -4.390625 C 2.0625 -4.316406 2 -4.226562 2 -4.125 C 2 -3.976562 2.082031 -3.867188 2.25 -3.796875 C 2.414062 -3.734375 2.617188 -3.675781 2.859375 -3.625 C 3.109375 -3.582031 3.375 -3.53125 3.65625 -3.46875 C 3.945312 -3.414062 4.210938 -3.320312 4.453125 -3.1875 C 4.703125 -3.050781 4.90625 -2.863281 5.0625 -2.625 C 5.226562 -2.394531 5.3125 -2.082031 5.3125 -1.6875 C 5.3125 -1.445312 5.269531 -1.21875 5.1875 -1 C 5.101562 -0.789062 4.960938 -0.601562 4.765625 -0.4375 C 4.578125 -0.269531 4.316406 -0.132812 3.984375 -0.03125 C 3.648438 0.0625 3.242188 0.109375 2.765625 0.109375 Z M 2.765625 0.109375 "/></g></g></g><g fill="#7ec8c8" fill-opacity="1"><g transform="translate(134.212815, 22.203947)"><g><path d="M 0.65625 -5.75 L 2.171875 -5.75 L 2.171875 0 L 0.65625 0 Z M 0.65625 -5.75 "/></g></g></g></svg>