<svg xmlns="http://www.w3.org/2000/svg" xmlns:xlink="http://www.w3.org/1999/xlink" width="1080" zoomAndPan="magnify" viewBox="0 0 810 1012.49997" height="1350" preserveAspectRatio="xMidYMid meet" version="1.0"><defs><clipPath id="897bb5cbe6"><path d="M 226.039062 216 L 583 216 L 583 711 L 226.039062 711 Z M 226.039062 216 " clip-rule="nonzero"/></clipPath></defs><path fill="#ffffff" d="M 248.917969 785.789062 L 240.933594 793.785156 C 239.347656 795.371094 236.867188 795.617188 235 794.375 C 232.726562 792.855469 232.222656 789.726562 233.898438 787.566406 L 236.558594 784.136719 L 242.328125 776.714844 L 247.269531 771.761719 L 252.214844 766.8125 L 257.980469 761.039062 L 265.394531 754.4375 L 271.164062 750.3125 L 280.226562 744.539062 L 284.757812 742.0625 C 287.773438 740.414062 290.914062 739.007812 294.152344 737.847656 L 300.824219 735.460938 L 304.316406 734.003906 C 308.566406 732.230469 312.992188 730.910156 317.519531 730.058594 L 323.894531 728.863281 L 330.789062 727.875 C 333.878906 727.433594 336.992188 727.210938 340.109375 727.210938 L 350.382812 727.210938 C 355.769531 727.210938 361.140625 727.875 366.367188 729.183594 L 368.382812 729.6875 L 378.269531 732.164062 L 388.15625 735.460938 L 402.164062 740.414062 L 411.226562 743.710938 L 421.113281 747.835938 L 431.824219 752.789062 L 440.0625 756.089844 L 443.816406 757.113281 C 447.347656 758.078125 450.957031 758.746094 454.601562 759.109375 L 457.363281 759.386719 L 469.722656 759.386719 L 470.199219 759.378906 C 475.699219 759.289062 481.164062 758.511719 486.472656 757.0625 L 487.023438 756.914062 L 496.910156 753.613281 L 505.148438 750.3125 L 514.210938 745.363281 L 522.449219 739.585938 L 529.042969 734.636719 L 535.632812 729.6875 L 543.046875 723.085938 L 546.734375 719.394531 C 549.171875 716.953125 553.179688 717.15625 555.363281 719.828125 L 557.964844 723.007812 C 558.382812 723.519531 558.347656 724.269531 557.878906 724.738281 L 554.582031 728.039062 L 550.464844 732.164062 L 546.34375 736.289062 L 540.578125 742.0625 L 535.632812 747.011719 L 531.515625 750.3125 L 522.449219 756.914062 L 518.332031 759.386719 L 515.859375 761.039062 L 511.742188 763.511719 L 506.796875 766.8125 L 500.207031 770.9375 L 495.261719 773.414062 L 484.550781 777.539062 L 476.3125 780.839844 C 473.027344 781.9375 469.636719 782.703125 466.199219 783.136719 L 464.777344 783.3125 L 457.363281 784.136719 L 444.179688 784.136719 L 434.292969 783.3125 L 427.703125 782.488281 L 419.464844 780.839844 L 410.402344 778.363281 L 404.632812 776.714844 L 398.867188 774.238281 L 389.804688 770.113281 L 379.917969 766.8125 L 377.085938 765.554688 C 374.035156 764.195312 370.882812 763.070312 367.660156 762.191406 L 363.441406 761.039062 L 357.671875 759.386719 C 354.382812 758.289062 351.003906 757.492188 347.570312 757 L 341.195312 756.089844 L 334.601562 755.261719 L 314.828125 755.261719 L 306.589844 756.089844 L 296.703125 757.738281 L 295.050781 758.234375 C 290.671875 759.550781 286.441406 761.320312 282.429688 763.507812 L 279.402344 765.164062 L 267.042969 771.761719 L 258.804688 777.539062 Z M 248.917969 785.789062 " fill-opacity="1" fill-rule="nonzero"/><g clip-path="url(#897bb5cbe6)"><path fill="#ffffff" d="M 230.792969 647.1875 C 230.792969 647.1875 227.789062 659.167969 226.671875 666.984375 C 209.878906 784.765625 532.515625 626.558594 532.515625 626.558594 L 544.105469 620.371094 C 544.617188 620.097656 545.113281 619.785156 545.578125 619.441406 L 547.144531 618.285156 C 549.234375 616.742188 550.460938 614.304688 550.460938 611.710938 C 550.460938 607.898438 549.6875 604.128906 548.191406 600.625 L 547.988281 600.160156 L 547.738281 599.402344 C 546.8125 596.621094 545.519531 593.972656 543.894531 591.53125 L 543.046875 590.257812 L 541.367188 588.015625 C 540.839844 587.3125 540.378906 586.566406 539.988281 585.78125 C 539.285156 584.375 538.363281 583.09375 537.253906 581.984375 L 533.984375 578.710938 L 532.976562 577.445312 C 531.457031 575.542969 529.730469 573.816406 527.828125 572.292969 L 526.570312 571.285156 L 525.175781 570.167969 C 523.363281 568.714844 521.402344 567.460938 519.328125 566.417969 L 515.484375 564.496094 C 513.542969 563.523438 511.507812 562.746094 509.414062 562.175781 L 503.5 560.558594 L 498.460938 559.550781 C 496.332031 559.125 494.167969 558.910156 492 558.910156 L 483.726562 558.910156 L 460.65625 559.734375 L 448.300781 560.558594 L 445.296875 560.558594 C 442.367188 560.558594 439.453125 560.949219 436.625 561.722656 L 431.820312 563.035156 L 424.40625 564.683594 L 414.519531 567.160156 C 409.207031 568.753906 402.8125 566.75 397.949219 569.417969 C 396.601562 570.160156 395.425781 571.492188 394.746094 573.757812 C 392.988281 579.632812 387.886719 579.234375 385.09375 578.515625 C 383.863281 578.199219 382.546875 578.152344 381.363281 578.625 C 378.304688 579.851562 374.253906 575.453125 371.4375 577.167969 C 370.132812 577.960938 368.351562 579.882812 365.910156 583.660156 C 365.253906 584.675781 364.648438 585.566406 364.089844 586.335938 C 360.964844 590.65625 351.933594 589.171875 346.960938 591.085938 L 337.898438 594.382812 L 332.132812 596.035156 C 331.558594 596.148438 331.28125 595.347656 331.808594 595.101562 C 342.375 590.175781 368.4375 577.8125 322.246094 596.859375 C 277.398438 615.351562 301.179688 604.238281 312.457031 599.070312 C 314.671875 598.050781 314.710938 595.070312 314.003906 592.734375 C 313.433594 590.84375 311.898438 589.070312 309.96875 589.484375 C 296 592.480469 253.734375 601.203125 314.003906 583.660156 C 370.335938 567.261719 338.140625 573.289062 322.574219 576.445312 C 320.117188 576.945312 318.316406 574.152344 319.773438 572.109375 C 322.148438 568.9375 320.566406 564.394531 316.925781 562.824219 C 311.523438 560.5 308.707031 557.578125 330.484375 558.082031 C 358.480469 558.734375 345.828125 553.71875 339.289062 551.585938 C 337.277344 550.929688 335.277344 550.214844 333.484375 549.085938 C 329.203125 546.402344 323.4375 541.390625 343.664062 543.234375 C 357.761719 544.515625 358.792969 542.695312 356.515625 540.644531 C 353.617188 538.03125 352.445312 533.617188 355.199219 530.859375 C 361.0625 526.054688 371.542969 527.851562 375.605469 521.453125 C 376.144531 520.605469 375.058594 519.390625 370.855469 517.65625 C 363.421875 514.59375 365.964844 513.15625 369.988281 512.480469 C 375.367188 511.578125 380.78125 510.527344 385.585938 507.9375 L 388.980469 506.109375 L 397.21875 501.15625 L 407.105469 496.207031 L 415.34375 492.082031 L 426.054688 487.132812 L 435.117188 483.832031 L 456.539062 477.230469 L 468.894531 473.933594 L 481.253906 471.457031 L 519.152344 464.855469 L 533.160156 464.03125 C 540.269531 464.03125 546.316406 458.835938 547.394531 451.800781 L 576.003906 265.203125 L 577.648438 254.476562 L 579.296875 242.101562 L 582.972656 217.816406 C 583.144531 216.6875 581.894531 215.894531 580.945312 216.527344 L 568.585938 226.425781 L 560.347656 233.027344 L 552.933594 239.625 L 539.75 250.351562 L 529.039062 260.253906 L 517.507812 269.328125 L 508.441406 275.925781 L 498.554688 284.179688 L 484.550781 294.902344 L 462.304688 313.878906 L 447.476562 327.902344 L 433.46875 341.929688 L 418.640625 356.78125 L 402.160156 373.28125 C 402.160156 373.28125 392.460938 382.746094 384.859375 390.605469 C 377.261719 398.464844 363.4375 413.707031 363.4375 413.707031 L 346.960938 431.03125 C 339.097656 439.988281 328.011719 454.957031 328.011719 454.957031 C 328.011719 454.957031 320.4375 465.488281 315.652344 472.28125 C 312.875 476.222656 309.304688 481.371094 306.578125 485.3125 C 303.867188 489.226562 302.164062 493.730469 300.628906 498.242188 C 298.785156 503.652344 295.449219 510.234375 290.113281 510.234375 C 281.050781 510.234375 293.40625 527.558594 280.226562 527.558594 C 267.042969 527.558594 262.101562 545.707031 270.339844 545.707031 C 278.578125 545.707031 282.695312 559.734375 262.101562 561.382812 C 250.933594 562.277344 249.210938 568.023438 249.972656 573.097656 C 250.824219 578.734375 256.039062 582.242188 260.007812 586.335938 C 264.472656 590.9375 266.117188 597.480469 245.621094 600.984375 C 240.191406 601.914062 236.316406 603.117188 233.636719 604.488281 C 220.503906 611.195312 235.164062 633.085938 230.792969 647.1875 Z M 230.792969 647.1875 " fill-opacity="1" fill-rule="nonzero"/></g></svg>