<svg xmlns="http://www.w3.org/2000/svg" xmlns:xlink="http://www.w3.org/1999/xlink" width="225" zoomAndPan="magnify" viewBox="0 0 168.75 30.000001" height="40" preserveAspectRatio="xMidYMid meet" version="1.0"><defs><g/><clipPath id="7a80d6b0b5"><path d="M 8 23 L 22 23 L 22 26.183594 L 8 26.183594 Z M 8 23 " clip-rule="nonzero"/></clipPath><clipPath id="e758c2c9a4"><path d="M 7.832031 3 L 22.347656 3 L 22.347656 23 L 7.832031 23 Z M 7.832031 3 " clip-rule="nonzero"/></clipPath></defs><g clip-path="url(#7a80d6b0b5)"><path fill="#ffffff" d="M 8.757812 25.714844 L 8.433594 26.035156 C 8.371094 26.097656 8.269531 26.109375 8.195312 26.058594 C 8.101562 25.996094 8.082031 25.871094 8.148438 25.785156 L 8.492188 25.355469 L 8.691406 25.15625 L 8.894531 24.960938 L 9.128906 24.730469 L 9.429688 24.46875 L 9.664062 24.300781 L 10.03125 24.074219 L 10.214844 23.972656 C 10.335938 23.90625 10.464844 23.851562 10.59375 23.804688 L 10.867188 23.710938 L 11.007812 23.652344 C 11.179688 23.582031 11.359375 23.527344 11.542969 23.496094 L 11.804688 23.449219 L 12.082031 23.410156 C 12.207031 23.390625 12.335938 23.382812 12.460938 23.382812 L 12.878906 23.382812 C 13.097656 23.382812 13.316406 23.410156 13.527344 23.460938 L 13.609375 23.480469 L 14.011719 23.578125 L 14.410156 23.710938 L 14.980469 23.90625 L 15.347656 24.039062 L 15.75 24.203125 L 16.183594 24.402344 L 16.519531 24.53125 L 16.671875 24.574219 C 16.816406 24.613281 16.960938 24.636719 17.109375 24.652344 L 17.222656 24.664062 L 17.742188 24.664062 C 17.964844 24.660156 18.1875 24.628906 18.402344 24.570312 L 18.425781 24.566406 L 18.828125 24.433594 L 19.160156 24.300781 L 19.527344 24.105469 L 19.863281 23.875 L 20.132812 23.679688 L 20.398438 23.480469 L 20.699219 23.21875 L 20.847656 23.070312 C 20.949219 22.972656 21.109375 22.980469 21.199219 23.085938 L 21.304688 23.214844 C 21.324219 23.234375 21.320312 23.265625 21.300781 23.285156 L 21.167969 23.414062 L 20.832031 23.742188 L 20.597656 23.972656 L 20.398438 24.171875 L 20.230469 24.300781 L 19.863281 24.566406 L 19.695312 24.664062 L 19.597656 24.730469 L 19.429688 24.828125 L 19.226562 24.960938 L 18.960938 25.125 L 18.761719 25.222656 L 18.324219 25.386719 L 17.992188 25.519531 C 17.855469 25.5625 17.71875 25.59375 17.582031 25.609375 L 17.523438 25.617188 L 17.222656 25.648438 L 16.6875 25.648438 L 16.285156 25.617188 L 16.015625 25.585938 L 15.683594 25.519531 L 15.316406 25.421875 L 15.082031 25.355469 L 14.847656 25.253906 L 14.480469 25.089844 L 14.078125 24.960938 L 13.960938 24.910156 C 13.839844 24.855469 13.710938 24.8125 13.578125 24.777344 L 13.410156 24.730469 L 13.175781 24.664062 C 13.039062 24.621094 12.902344 24.589844 12.765625 24.570312 L 12.503906 24.53125 L 12.238281 24.5 L 11.433594 24.5 L 11.101562 24.53125 L 10.699219 24.597656 L 10.632812 24.617188 C 10.453125 24.671875 10.28125 24.742188 10.121094 24.828125 L 9.996094 24.894531 L 9.496094 25.15625 L 9.160156 25.386719 Z M 8.757812 25.714844 " fill-opacity="1" fill-rule="nonzero"/></g><g clip-path="url(#e758c2c9a4)"><path fill="#ffffff" d="M 8.023438 20.191406 C 8.023438 20.191406 7.902344 20.671875 7.855469 20.980469 C 7.175781 25.675781 20.273438 19.371094 20.273438 19.371094 L 20.742188 19.125 C 20.761719 19.113281 20.785156 19.101562 20.800781 19.085938 L 20.867188 19.042969 C 20.949219 18.980469 21 18.882812 21 18.78125 C 21 18.628906 20.96875 18.476562 20.910156 18.339844 L 20.902344 18.320312 L 20.890625 18.289062 C 20.851562 18.179688 20.800781 18.074219 20.734375 17.976562 L 20.699219 17.925781 L 20.632812 17.835938 C 20.609375 17.808594 20.589844 17.777344 20.574219 17.746094 C 20.546875 17.691406 20.507812 17.640625 20.464844 17.59375 L 20.332031 17.464844 L 20.292969 17.414062 C 20.230469 17.339844 20.160156 17.269531 20.082031 17.210938 L 20.03125 17.167969 L 19.972656 17.125 C 19.902344 17.066406 19.820312 17.015625 19.738281 16.976562 L 19.664062 16.9375 L 19.582031 16.898438 C 19.503906 16.859375 19.417969 16.828125 19.335938 16.804688 L 19.09375 16.742188 L 18.890625 16.699219 C 18.804688 16.683594 18.714844 16.675781 18.628906 16.675781 L 18.292969 16.675781 L 17.355469 16.707031 L 16.851562 16.742188 L 16.730469 16.742188 C 16.613281 16.742188 16.496094 16.757812 16.378906 16.789062 L 16.183594 16.839844 L 15.882812 16.90625 L 15.480469 17.003906 C 15.265625 17.066406 15.007812 16.988281 14.808594 17.09375 C 14.753906 17.125 14.707031 17.175781 14.679688 17.265625 C 14.609375 17.5 14.402344 17.484375 14.289062 17.457031 C 14.238281 17.445312 14.183594 17.441406 14.136719 17.460938 C 14.011719 17.511719 13.847656 17.335938 13.734375 17.402344 C 13.679688 17.433594 13.609375 17.511719 13.507812 17.660156 C 13.480469 17.703125 13.457031 17.738281 13.433594 17.769531 C 13.308594 17.941406 12.941406 17.882812 12.738281 17.957031 L 12.371094 18.089844 L 12.136719 18.15625 C 12.113281 18.160156 12.101562 18.128906 12.125 18.117188 C 12.554688 17.921875 13.613281 17.429688 11.734375 18.1875 C 9.914062 18.925781 10.878906 18.480469 11.339844 18.277344 C 11.429688 18.234375 11.429688 18.117188 11.402344 18.023438 C 11.378906 17.949219 11.316406 17.878906 11.238281 17.894531 C 10.671875 18.011719 8.953125 18.359375 11.402344 17.660156 C 13.6875 17.007812 12.382812 17.25 11.75 17.375 C 11.648438 17.394531 11.578125 17.28125 11.636719 17.203125 C 11.730469 17.074219 11.667969 16.894531 11.519531 16.832031 C 11.300781 16.738281 11.1875 16.621094 12.070312 16.644531 C 13.207031 16.667969 12.695312 16.46875 12.429688 16.382812 C 12.347656 16.359375 12.265625 16.328125 12.191406 16.285156 C 12.019531 16.175781 11.785156 15.976562 12.605469 16.050781 C 13.179688 16.101562 13.21875 16.03125 13.128906 15.949219 C 13.007812 15.84375 12.960938 15.667969 13.074219 15.558594 C 13.3125 15.367188 13.738281 15.4375 13.902344 15.183594 C 13.925781 15.148438 13.878906 15.101562 13.710938 15.03125 C 13.40625 14.910156 13.511719 14.851562 13.675781 14.824219 C 13.894531 14.789062 14.113281 14.746094 14.308594 14.644531 L 14.445312 14.570312 L 14.78125 14.375 L 15.179688 14.175781 L 15.515625 14.011719 L 15.949219 13.816406 L 16.316406 13.683594 L 16.753906 13.550781 L 17.1875 13.421875 L 17.691406 13.289062 L 18.191406 13.191406 L 18.960938 13.058594 L 19.730469 12.929688 L 20.296875 12.894531 C 20.585938 12.894531 20.832031 12.6875 20.875 12.40625 L 22.039062 4.972656 L 22.105469 4.546875 L 22.171875 4.050781 L 22.320312 3.085938 C 22.328125 3.039062 22.277344 3.007812 22.238281 3.03125 L 21.738281 3.425781 L 21.402344 3.691406 L 21.101562 3.953125 L 20.566406 4.378906 L 20.132812 4.773438 L 19.664062 5.136719 L 19.296875 5.398438 L 18.894531 5.730469 L 18.324219 6.15625 L 17.421875 6.910156 L 16.820312 7.472656 L 16.25 8.03125 L 15.648438 8.621094 L 14.980469 9.277344 C 14.980469 9.277344 14.585938 9.65625 14.277344 9.96875 C 13.96875 10.28125 13.410156 10.890625 13.410156 10.890625 L 12.738281 11.582031 C 12.421875 11.9375 11.96875 12.535156 11.96875 12.535156 C 11.96875 12.535156 11.664062 12.953125 11.46875 13.222656 C 11.355469 13.382812 11.210938 13.585938 11.101562 13.742188 C 10.988281 13.898438 10.921875 14.078125 10.859375 14.257812 C 10.785156 14.472656 10.648438 14.734375 10.429688 14.734375 C 10.0625 14.734375 10.566406 15.425781 10.03125 15.425781 C 9.496094 15.425781 9.292969 16.148438 9.628906 16.148438 C 9.964844 16.148438 10.128906 16.707031 9.292969 16.773438 C 8.839844 16.808594 8.769531 17.039062 8.800781 17.242188 C 8.835938 17.464844 9.046875 17.605469 9.210938 17.769531 C 9.390625 17.953125 9.457031 18.210938 8.625 18.351562 C 8.40625 18.390625 8.246094 18.4375 8.140625 18.492188 C 7.605469 18.757812 8.199219 19.632812 8.023438 20.191406 Z M 8.023438 20.191406 " fill-opacity="1" fill-rule="nonzero"/></g><g fill="#ffffff" fill-opacity="1"><g transform="translate(24.672771, 18.200739)"><g><path d="M 2.96875 1.890625 L 3.671875 1.890625 C 3.921875 1.890625 4.046875 1.785156 4.046875 1.578125 C 4.046875 1.367188 3.921875 1.265625 3.671875 1.265625 L 3.09375 1.265625 L 3.09375 0.5625 L 3.296875 0.09375 C 2.472656 0 1.789062 -0.273438 1.25 -0.734375 C 0.707031 -1.191406 0.394531 -1.832031 0.3125 -2.65625 L 2.21875 -2.65625 C 2.28125 -2.300781 2.457031 -2.019531 2.75 -1.8125 C 3.050781 -1.613281 3.441406 -1.515625 3.921875 -1.515625 C 4.515625 -1.515625 4.9375 -1.613281 5.1875 -1.8125 C 5.4375 -2.007812 5.5625 -2.269531 5.5625 -2.59375 C 5.5625 -2.8125 5.488281 -2.984375 5.34375 -3.109375 C 5.195312 -3.242188 5.007812 -3.347656 4.78125 -3.421875 C 4.5625 -3.503906 4.300781 -3.570312 4 -3.625 C 3.707031 -3.6875 3.40625 -3.753906 3.09375 -3.828125 C 2.78125 -3.898438 2.476562 -3.988281 2.1875 -4.09375 C 1.894531 -4.207031 1.632812 -4.359375 1.40625 -4.546875 C 1.175781 -4.734375 0.988281 -4.972656 0.84375 -5.265625 C 0.695312 -5.566406 0.625 -5.941406 0.625 -6.390625 C 0.625 -6.816406 0.707031 -7.1875 0.875 -7.5 C 1.050781 -7.820312 1.285156 -8.09375 1.578125 -8.3125 C 1.878906 -8.53125 2.226562 -8.691406 2.625 -8.796875 C 3.03125 -8.910156 3.460938 -8.96875 3.921875 -8.96875 C 4.460938 -8.96875 4.929688 -8.898438 5.328125 -8.765625 C 5.734375 -8.640625 6.078125 -8.457031 6.359375 -8.21875 C 6.640625 -7.988281 6.859375 -7.710938 7.015625 -7.390625 C 7.171875 -7.078125 7.273438 -6.742188 7.328125 -6.390625 L 5.4375 -6.390625 C 5.363281 -6.671875 5.203125 -6.894531 4.953125 -7.0625 C 4.710938 -7.238281 4.390625 -7.328125 3.984375 -7.328125 C 3.503906 -7.328125 3.148438 -7.234375 2.921875 -7.046875 C 2.703125 -6.859375 2.59375 -6.640625 2.59375 -6.390625 C 2.59375 -6.160156 2.660156 -5.972656 2.796875 -5.828125 C 2.941406 -5.691406 3.128906 -5.578125 3.359375 -5.484375 C 3.585938 -5.398438 3.847656 -5.328125 4.140625 -5.265625 C 4.441406 -5.203125 4.75 -5.128906 5.0625 -5.046875 C 5.375 -4.972656 5.675781 -4.878906 5.96875 -4.765625 C 6.257812 -4.660156 6.519531 -4.515625 6.75 -4.328125 C 6.976562 -4.148438 7.160156 -3.921875 7.296875 -3.640625 C 7.441406 -3.359375 7.515625 -3.007812 7.515625 -2.59375 C 7.515625 -2.238281 7.445312 -1.898438 7.3125 -1.578125 C 7.175781 -1.265625 6.972656 -0.988281 6.703125 -0.75 C 6.429688 -0.507812 6.09375 -0.3125 5.6875 -0.15625 C 5.289062 -0.0078125 4.832031 0.078125 4.3125 0.109375 L 4.171875 0.4375 C 4.453125 0.476562 4.703125 0.585938 4.921875 0.765625 C 5.140625 0.953125 5.25 1.222656 5.25 1.578125 C 5.25 1.992188 5.128906 2.316406 4.890625 2.546875 C 4.648438 2.785156 4.304688 2.90625 3.859375 2.90625 L 2.96875 2.90625 Z M 2.96875 1.890625 "/></g></g></g><g fill="#ffffff" fill-opacity="1"><g transform="translate(32.56874, 18.200739)"><g><path d="M 0.765625 -6.703125 L 2.53125 -6.703125 L 2.53125 0 L 0.765625 0 Z M 1.640625 -7.390625 C 1.359375 -7.390625 1.117188 -7.484375 0.921875 -7.671875 C 0.722656 -7.867188 0.625 -8.113281 0.625 -8.40625 C 0.625 -8.6875 0.722656 -8.925781 0.921875 -9.125 C 1.117188 -9.320312 1.359375 -9.421875 1.640625 -9.421875 C 1.929688 -9.421875 2.171875 -9.320312 2.359375 -9.125 C 2.554688 -8.925781 2.65625 -8.6875 2.65625 -8.40625 C 2.65625 -8.113281 2.554688 -7.867188 2.359375 -7.671875 C 2.171875 -7.484375 1.929688 -7.390625 1.640625 -7.390625 Z M 1.640625 -7.390625 "/></g></g></g><g fill="#ffffff" fill-opacity="1"><g transform="translate(35.853464, 18.200739)"><g><path d="M 0.765625 -6.703125 L 2.28125 -6.703125 L 2.46875 -5.9375 L 2.53125 -5.9375 C 2.71875 -6.226562 2.945312 -6.425781 3.21875 -6.53125 C 3.488281 -6.644531 3.785156 -6.703125 4.109375 -6.703125 L 4.9375 -6.703125 L 4.9375 -5 L 4.234375 -5 C 3.691406 -5 3.269531 -4.847656 2.96875 -4.546875 C 2.675781 -4.253906 2.53125 -3.851562 2.53125 -3.34375 L 2.53125 0 L 0.765625 0 Z M 0.765625 -6.703125 "/></g></g></g><g fill="#ffffff" fill-opacity="1"><g transform="translate(40.970047, 18.200739)"><g><path d="M 0.828125 -8.84375 L 2.59375 -8.84375 L 2.59375 -3.734375 L 5.0625 -6.703125 L 7.140625 -6.703125 L 4.421875 -3.40625 L 7.328125 0 L 5.25 0 L 2.59375 -3.09375 L 2.59375 0 L 0.828125 0 Z M 0.828125 -8.84375 "/></g></g></g><g fill="#ffffff" fill-opacity="1"><g transform="translate(47.918401, 18.200739)"><g><path d="M 3.734375 0.125 C 3.222656 0.125 2.765625 0.046875 2.359375 -0.109375 C 1.953125 -0.265625 1.601562 -0.488281 1.3125 -0.78125 C 1.03125 -1.070312 0.8125 -1.429688 0.65625 -1.859375 C 0.507812 -2.296875 0.4375 -2.789062 0.4375 -3.34375 C 0.4375 -3.90625 0.507812 -4.398438 0.65625 -4.828125 C 0.8125 -5.253906 1.03125 -5.613281 1.3125 -5.90625 C 1.601562 -6.207031 1.953125 -6.4375 2.359375 -6.59375 C 2.765625 -6.75 3.222656 -6.828125 3.734375 -6.828125 C 4.222656 -6.828125 4.664062 -6.742188 5.0625 -6.578125 C 5.457031 -6.410156 5.796875 -6.175781 6.078125 -5.875 C 6.359375 -5.582031 6.570312 -5.226562 6.71875 -4.8125 C 6.875 -4.40625 6.953125 -3.957031 6.953125 -3.46875 C 6.953125 -3.382812 6.945312 -3.296875 6.9375 -3.203125 C 6.925781 -3.117188 6.921875 -3.046875 6.921875 -2.984375 C 6.910156 -2.910156 6.898438 -2.84375 6.890625 -2.78125 L 2.28125 -2.78125 C 2.34375 -2.40625 2.488281 -2.085938 2.71875 -1.828125 C 2.945312 -1.578125 3.285156 -1.453125 3.734375 -1.453125 C 4.078125 -1.453125 4.328125 -1.507812 4.484375 -1.625 C 4.648438 -1.738281 4.800781 -1.890625 4.9375 -2.078125 L 6.828125 -2.078125 C 6.753906 -1.796875 6.640625 -1.519531 6.484375 -1.25 C 6.328125 -0.988281 6.125 -0.753906 5.875 -0.546875 C 5.625 -0.335938 5.320312 -0.171875 4.96875 -0.046875 C 4.613281 0.0664062 4.203125 0.125 3.734375 0.125 Z M 5.125 -4.109375 C 5.082031 -4.253906 5.023438 -4.394531 4.953125 -4.53125 C 4.890625 -4.664062 4.800781 -4.785156 4.6875 -4.890625 C 4.570312 -5.003906 4.429688 -5.09375 4.265625 -5.15625 C 4.109375 -5.21875 3.929688 -5.25 3.734375 -5.25 C 3.316406 -5.25 2.992188 -5.140625 2.765625 -4.921875 C 2.535156 -4.703125 2.375 -4.429688 2.28125 -4.109375 Z M 5.125 -4.109375 "/></g></g></g><g fill="#ffffff" fill-opacity="1"><g transform="translate(55.309033, 18.200739)"><g><path d="M 3.40625 0 C 2.707031 0 2.1875 -0.164062 1.84375 -0.5 C 1.5 -0.84375 1.328125 -1.328125 1.328125 -1.953125 L 1.328125 -5.0625 L 0.25 -5.0625 L 0.25 -6.703125 L 1.328125 -6.703125 L 1.578125 -8.46875 L 3.09375 -8.46875 L 3.09375 -6.703125 L 4.671875 -6.703125 L 4.671875 -5.0625 L 3.09375 -5.0625 L 3.09375 -2.28125 C 3.09375 -2.082031 3.148438 -1.925781 3.265625 -1.8125 C 3.378906 -1.695312 3.535156 -1.640625 3.734375 -1.640625 L 4.671875 -1.640625 L 4.671875 0 Z M 3.40625 0 "/></g></g></g><g fill="#ffffff" fill-opacity="1"><g transform="translate(60.488787, 18.200739)"><g><path d="M 0.828125 -8.84375 L 2.59375 -8.84375 L 2.59375 0 L 0.828125 0 Z M 0.828125 -8.84375 "/></g></g></g><g fill="#ffffff" fill-opacity="1"><g transform="translate(63.899843, 18.200739)"><g><path d="M 3.734375 0.125 C 3.222656 0.125 2.765625 0.046875 2.359375 -0.109375 C 1.953125 -0.265625 1.601562 -0.488281 1.3125 -0.78125 C 1.03125 -1.070312 0.8125 -1.429688 0.65625 -1.859375 C 0.507812 -2.296875 0.4375 -2.789062 0.4375 -3.34375 C 0.4375 -3.90625 0.507812 -4.398438 0.65625 -4.828125 C 0.8125 -5.253906 1.03125 -5.613281 1.3125 -5.90625 C 1.601562 -6.207031 1.953125 -6.4375 2.359375 -6.59375 C 2.765625 -6.75 3.222656 -6.828125 3.734375 -6.828125 C 4.222656 -6.828125 4.664062 -6.742188 5.0625 -6.578125 C 5.457031 -6.410156 5.796875 -6.175781 6.078125 -5.875 C 6.359375 -5.582031 6.570312 -5.226562 6.71875 -4.8125 C 6.875 -4.40625 6.953125 -3.957031 6.953125 -3.46875 C 6.953125 -3.382812 6.945312 -3.296875 6.9375 -3.203125 C 6.925781 -3.117188 6.921875 -3.046875 6.921875 -2.984375 C 6.910156 -2.910156 6.898438 -2.84375 6.890625 -2.78125 L 2.28125 -2.78125 C 2.34375 -2.40625 2.488281 -2.085938 2.71875 -1.828125 C 2.945312 -1.578125 3.285156 -1.453125 3.734375 -1.453125 C 4.078125 -1.453125 4.328125 -1.507812 4.484375 -1.625 C 4.648438 -1.738281 4.800781 -1.890625 4.9375 -2.078125 L 6.828125 -2.078125 C 6.753906 -1.796875 6.640625 -1.519531 6.484375 -1.25 C 6.328125 -0.988281 6.125 -0.753906 5.875 -0.546875 C 5.625 -0.335938 5.320312 -0.171875 4.96875 -0.046875 C 4.613281 0.0664062 4.203125 0.125 3.734375 0.125 Z M 5.125 -4.109375 C 5.082031 -4.253906 5.023438 -4.394531 4.953125 -4.53125 C 4.890625 -4.664062 4.800781 -4.785156 4.6875 -4.890625 C 4.570312 -5.003906 4.429688 -5.09375 4.265625 -5.15625 C 4.109375 -5.21875 3.929688 -5.25 3.734375 -5.25 C 3.316406 -5.25 2.992188 -5.140625 2.765625 -4.921875 C 2.535156 -4.703125 2.375 -4.429688 2.28125 -4.109375 Z M 5.125 -4.109375 "/></g></g></g><g fill="#ffffff" fill-opacity="1"><g transform="translate(71.290474, 18.200739)"><g><path d="M 0.765625 -6.703125 L 2.28125 -6.703125 L 2.46875 -5.9375 L 2.53125 -5.9375 C 2.71875 -6.226562 2.945312 -6.425781 3.21875 -6.53125 C 3.488281 -6.644531 3.785156 -6.703125 4.109375 -6.703125 L 4.9375 -6.703125 L 4.9375 -5 L 4.234375 -5 C 3.691406 -5 3.269531 -4.847656 2.96875 -4.546875 C 2.675781 -4.253906 2.53125 -3.851562 2.53125 -3.34375 L 2.53125 0 L 0.765625 0 Z M 0.765625 -6.703125 "/></g></g></g><g fill="#ffffff" fill-opacity="1"><g transform="translate(76.027752, 18.200739)"><g/></g></g><g fill="#ffffff" fill-opacity="1"><g transform="translate(78.554165, 18.200739)"><g><path d="M 2.90625 -3.03125 L -0.1875 -8.84375 L 1.828125 -8.84375 L 3.8125 -5 L 3.875 -5 L 5.875 -8.84375 L 7.90625 -8.84375 L 4.796875 -3.03125 L 4.796875 0 L 2.90625 0 Z M 2.90625 -3.03125 "/></g></g></g><g fill="#ffffff" fill-opacity="1"><g transform="translate(85.249147, 18.200739)"><g><path d="M 3.734375 0.125 C 3.222656 0.125 2.765625 0.046875 2.359375 -0.109375 C 1.953125 -0.265625 1.601562 -0.488281 1.3125 -0.78125 C 1.03125 -1.070312 0.8125 -1.429688 0.65625 -1.859375 C 0.507812 -2.296875 0.4375 -2.789062 0.4375 -3.34375 C 0.4375 -3.90625 0.507812 -4.398438 0.65625 -4.828125 C 0.8125 -5.253906 1.03125 -5.613281 1.3125 -5.90625 C 1.601562 -6.207031 1.953125 -6.4375 2.359375 -6.59375 C 2.765625 -6.75 3.222656 -6.828125 3.734375 -6.828125 C 4.222656 -6.828125 4.664062 -6.742188 5.0625 -6.578125 C 5.457031 -6.410156 5.796875 -6.175781 6.078125 -5.875 C 6.359375 -5.582031 6.570312 -5.226562 6.71875 -4.8125 C 6.875 -4.40625 6.953125 -3.957031 6.953125 -3.46875 C 6.953125 -3.382812 6.945312 -3.296875 6.9375 -3.203125 C 6.925781 -3.117188 6.921875 -3.046875 6.921875 -2.984375 C 6.910156 -2.910156 6.898438 -2.84375 6.890625 -2.78125 L 2.28125 -2.78125 C 2.34375 -2.40625 2.488281 -2.085938 2.71875 -1.828125 C 2.945312 -1.578125 3.285156 -1.453125 3.734375 -1.453125 C 4.078125 -1.453125 4.328125 -1.507812 4.484375 -1.625 C 4.648438 -1.738281 4.800781 -1.890625 4.9375 -2.078125 L 6.828125 -2.078125 C 6.753906 -1.796875 6.640625 -1.519531 6.484375 -1.25 C 6.328125 -0.988281 6.125 -0.753906 5.875 -0.546875 C 5.625 -0.335938 5.320312 -0.171875 4.96875 -0.046875 C 4.613281 0.0664062 4.203125 0.125 3.734375 0.125 Z M 5.125 -4.109375 C 5.082031 -4.253906 5.023438 -4.394531 4.953125 -4.53125 C 4.890625 -4.664062 4.800781 -4.785156 4.6875 -4.890625 C 4.570312 -5.003906 4.429688 -5.09375 4.265625 -5.15625 C 4.109375 -5.21875 3.929688 -5.25 3.734375 -5.25 C 3.316406 -5.25 2.992188 -5.140625 2.765625 -4.921875 C 2.535156 -4.703125 2.375 -4.429688 2.28125 -4.109375 Z M 5.125 -4.109375 "/></g></g></g><g fill="#ffffff" fill-opacity="1"><g transform="translate(92.639778, 18.200739)"><g><path d="M 0.828125 -8.84375 L 2.59375 -8.84375 L 2.59375 0 L 0.828125 0 Z M 0.828125 -8.84375 "/></g></g></g><g fill="#ffffff" fill-opacity="1"><g transform="translate(96.050833, 18.200739)"><g><path d="M 0.828125 -8.84375 L 2.59375 -8.84375 L 2.59375 -3.734375 L 5.0625 -6.703125 L 7.140625 -6.703125 L 4.421875 -3.40625 L 7.328125 0 L 5.25 0 L 2.59375 -3.09375 L 2.59375 0 L 0.828125 0 Z M 0.828125 -8.84375 "/></g></g></g><g fill="#ffffff" fill-opacity="1"><g transform="translate(102.999187, 18.200739)"><g><path d="M 3.734375 0.125 C 3.222656 0.125 2.765625 0.046875 2.359375 -0.109375 C 1.953125 -0.265625 1.601562 -0.488281 1.3125 -0.78125 C 1.03125 -1.070312 0.8125 -1.429688 0.65625 -1.859375 C 0.507812 -2.296875 0.4375 -2.789062 0.4375 -3.34375 C 0.4375 -3.90625 0.507812 -4.398438 0.65625 -4.828125 C 0.8125 -5.253906 1.03125 -5.613281 1.3125 -5.90625 C 1.601562 -6.207031 1.953125 -6.4375 2.359375 -6.59375 C 2.765625 -6.75 3.222656 -6.828125 3.734375 -6.828125 C 4.222656 -6.828125 4.664062 -6.742188 5.0625 -6.578125 C 5.457031 -6.410156 5.796875 -6.175781 6.078125 -5.875 C 6.359375 -5.582031 6.570312 -5.226562 6.71875 -4.8125 C 6.875 -4.40625 6.953125 -3.957031 6.953125 -3.46875 C 6.953125 -3.382812 6.945312 -3.296875 6.9375 -3.203125 C 6.925781 -3.117188 6.921875 -3.046875 6.921875 -2.984375 C 6.910156 -2.910156 6.898438 -2.84375 6.890625 -2.78125 L 2.28125 -2.78125 C 2.34375 -2.40625 2.488281 -2.085938 2.71875 -1.828125 C 2.945312 -1.578125 3.285156 -1.453125 3.734375 -1.453125 C 4.078125 -1.453125 4.328125 -1.507812 4.484375 -1.625 C 4.648438 -1.738281 4.800781 -1.890625 4.9375 -2.078125 L 6.828125 -2.078125 C 6.753906 -1.796875 6.640625 -1.519531 6.484375 -1.25 C 6.328125 -0.988281 6.125 -0.753906 5.875 -0.546875 C 5.625 -0.335938 5.320312 -0.171875 4.96875 -0.046875 C 4.613281 0.0664062 4.203125 0.125 3.734375 0.125 Z M 5.125 -4.109375 C 5.082031 -4.253906 5.023438 -4.394531 4.953125 -4.53125 C 4.890625 -4.664062 4.800781 -4.785156 4.6875 -4.890625 C 4.570312 -5.003906 4.429688 -5.09375 4.265625 -5.15625 C 4.109375 -5.21875 3.929688 -5.25 3.734375 -5.25 C 3.316406 -5.25 2.992188 -5.140625 2.765625 -4.921875 C 2.535156 -4.703125 2.375 -4.429688 2.28125 -4.109375 Z M 5.125 -4.109375 "/></g></g></g><g fill="#ffffff" fill-opacity="1"><g transform="translate(110.389819, 18.200739)"><g><path d="M 0.765625 -6.703125 L 2.28125 -6.703125 L 2.46875 -5.9375 L 2.53125 -5.9375 C 2.75 -6.226562 3.007812 -6.445312 3.3125 -6.59375 C 3.613281 -6.75 3.941406 -6.828125 4.296875 -6.828125 C 4.660156 -6.828125 4.992188 -6.765625 5.296875 -6.640625 C 5.597656 -6.515625 5.851562 -6.332031 6.0625 -6.09375 C 6.28125 -5.863281 6.453125 -5.582031 6.578125 -5.25 C 6.703125 -4.914062 6.765625 -4.535156 6.765625 -4.109375 L 6.765625 0 L 5 0 L 5 -3.859375 C 5 -4.304688 4.890625 -4.648438 4.671875 -4.890625 C 4.460938 -5.128906 4.171875 -5.25 3.796875 -5.25 C 3.410156 -5.25 3.101562 -5.117188 2.875 -4.859375 C 2.644531 -4.597656 2.53125 -4.265625 2.53125 -3.859375 L 2.53125 0 L 0.765625 0 Z M 0.765625 -6.703125 "/></g></g></g><g fill="#ffffff" fill-opacity="1"><g transform="translate(117.84361, 18.200739)"><g/></g></g><g fill="#ffffff" fill-opacity="1"><g transform="translate(120.749328, 18.200739)"><g><path d="M 0.890625 -8.84375 L 2.78125 -8.84375 L 2.78125 -4.9375 L 5.9375 -8.84375 L 8.15625 -8.84375 L 4.609375 -4.484375 L 8.34375 0 L 6.125 0 L 2.78125 -4.046875 L 2.78125 0 L 0.890625 0 Z M 0.890625 -8.84375 "/></g></g></g><g fill="#ffffff" fill-opacity="1"><g transform="translate(128.455495, 18.200739)"><g><path d="M 3.21875 0.125 C 2.863281 0.125 2.53125 0.0664062 2.21875 -0.046875 C 1.914062 -0.171875 1.65625 -0.351562 1.4375 -0.59375 C 1.226562 -0.832031 1.0625 -1.117188 0.9375 -1.453125 C 0.820312 -1.785156 0.765625 -2.164062 0.765625 -2.59375 L 0.765625 -6.703125 L 2.53125 -6.703125 L 2.53125 -2.84375 C 2.53125 -2.394531 2.632812 -2.050781 2.84375 -1.8125 C 3.050781 -1.570312 3.347656 -1.453125 3.734375 -1.453125 C 4.109375 -1.453125 4.410156 -1.578125 4.640625 -1.828125 C 4.878906 -2.085938 5 -2.425781 5 -2.84375 L 5 -6.703125 L 6.765625 -6.703125 L 6.765625 0 L 5.25 0 L 5.0625 -0.765625 L 5 -0.765625 C 4.78125 -0.472656 4.515625 -0.25 4.203125 -0.09375 C 3.898438 0.0507812 3.570312 0.125 3.21875 0.125 Z M 3.21875 0.125 "/></g></g></g><g fill="#ffffff" fill-opacity="1"><g transform="translate(135.972458, 18.200739)"><g><path d="M 0.765625 -6.703125 L 2.28125 -6.703125 L 2.46875 -5.9375 L 2.53125 -5.9375 C 2.71875 -6.15625 2.960938 -6.359375 3.265625 -6.546875 C 3.566406 -6.734375 3.953125 -6.828125 4.421875 -6.828125 C 4.847656 -6.828125 5.238281 -6.753906 5.59375 -6.609375 C 5.945312 -6.460938 6.253906 -6.238281 6.515625 -5.9375 C 6.773438 -5.644531 6.972656 -5.28125 7.109375 -4.84375 C 7.253906 -4.414062 7.328125 -3.914062 7.328125 -3.34375 C 7.328125 -2.769531 7.253906 -2.269531 7.109375 -1.84375 C 6.972656 -1.414062 6.773438 -1.050781 6.515625 -0.75 C 6.253906 -0.457031 5.945312 -0.238281 5.59375 -0.09375 C 5.238281 0.0507812 4.847656 0.125 4.421875 0.125 C 4.171875 0.125 3.945312 0.0976562 3.75 0.046875 C 3.550781 -0.00390625 3.375 -0.0703125 3.21875 -0.15625 C 3.070312 -0.25 2.945312 -0.34375 2.84375 -0.4375 C 2.738281 -0.53125 2.65625 -0.613281 2.59375 -0.6875 L 2.53125 -0.6875 L 2.53125 2.53125 L 0.765625 2.53125 Z M 4.046875 -1.453125 C 4.242188 -1.453125 4.4375 -1.488281 4.625 -1.5625 C 4.8125 -1.632812 4.972656 -1.75 5.109375 -1.90625 C 5.253906 -2.0625 5.363281 -2.257812 5.4375 -2.5 C 5.519531 -2.738281 5.5625 -3.019531 5.5625 -3.34375 C 5.5625 -3.675781 5.519531 -3.960938 5.4375 -4.203125 C 5.363281 -4.441406 5.253906 -4.640625 5.109375 -4.796875 C 4.972656 -4.953125 4.8125 -5.066406 4.625 -5.140625 C 4.4375 -5.210938 4.242188 -5.25 4.046875 -5.25 C 3.835938 -5.25 3.640625 -5.210938 3.453125 -5.140625 C 3.273438 -5.066406 3.113281 -4.953125 2.96875 -4.796875 C 2.832031 -4.640625 2.722656 -4.441406 2.640625 -4.203125 C 2.566406 -3.960938 2.53125 -3.675781 2.53125 -3.34375 C 2.53125 -3.019531 2.566406 -2.738281 2.640625 -2.5 C 2.722656 -2.257812 2.832031 -2.0625 2.96875 -1.90625 C 3.113281 -1.75 3.273438 -1.632812 3.453125 -1.5625 C 3.640625 -1.488281 3.835938 -1.453125 4.046875 -1.453125 Z M 4.046875 -1.453125 "/></g></g></g><g fill="#ffffff" fill-opacity="1"><g transform="translate(143.742096, 18.200739)"><g><path d="M 2.71875 0.125 C 2.351562 0.125 2.023438 0.0703125 1.734375 -0.03125 C 1.441406 -0.132812 1.191406 -0.28125 0.984375 -0.46875 C 0.785156 -0.65625 0.632812 -0.875 0.53125 -1.125 C 0.425781 -1.375 0.375 -1.648438 0.375 -1.953125 C 0.375 -2.265625 0.425781 -2.546875 0.53125 -2.796875 C 0.644531 -3.046875 0.8125 -3.265625 1.03125 -3.453125 C 1.25 -3.640625 1.519531 -3.785156 1.84375 -3.890625 C 2.164062 -3.992188 2.539062 -4.046875 2.96875 -4.046875 L 4.546875 -4.046875 L 4.546875 -4.359375 C 4.546875 -4.679688 4.441406 -4.921875 4.234375 -5.078125 C 4.035156 -5.234375 3.757812 -5.3125 3.40625 -5.3125 C 3.15625 -5.3125 2.941406 -5.253906 2.765625 -5.140625 C 2.585938 -5.035156 2.46875 -4.898438 2.40625 -4.734375 L 0.625 -4.734375 C 0.6875 -5.003906 0.789062 -5.265625 0.9375 -5.515625 C 1.082031 -5.765625 1.269531 -5.984375 1.5 -6.171875 C 1.738281 -6.367188 2.019531 -6.523438 2.34375 -6.640625 C 2.664062 -6.765625 3.039062 -6.828125 3.46875 -6.828125 C 4.363281 -6.828125 5.0625 -6.609375 5.5625 -6.171875 C 6.070312 -5.742188 6.328125 -5.117188 6.328125 -4.296875 L 6.328125 0 L 4.796875 0 L 4.609375 -0.765625 L 4.546875 -0.765625 C 4.484375 -0.671875 4.398438 -0.566406 4.296875 -0.453125 C 4.191406 -0.347656 4.0625 -0.25 3.90625 -0.15625 C 3.757812 -0.0703125 3.585938 -0.00390625 3.390625 0.046875 C 3.191406 0.0976562 2.96875 0.125 2.71875 0.125 Z M 3.15625 -1.328125 C 3.570312 -1.328125 3.90625 -1.441406 4.15625 -1.671875 C 4.414062 -1.898438 4.546875 -2.207031 4.546875 -2.59375 L 4.546875 -2.78125 L 3.03125 -2.78125 C 2.707031 -2.78125 2.476562 -2.710938 2.34375 -2.578125 C 2.21875 -2.441406 2.15625 -2.273438 2.15625 -2.078125 C 2.15625 -1.859375 2.234375 -1.675781 2.390625 -1.53125 C 2.546875 -1.394531 2.800781 -1.328125 3.15625 -1.328125 Z M 3.15625 -1.328125 "/></g></g></g><g fill="#ffffff" fill-opacity="1"><g transform="translate(150.753721, 18.200739)"><g><path d="M 3.21875 0.125 C 2.726562 0.125 2.304688 0.0664062 1.953125 -0.046875 C 1.597656 -0.171875 1.300781 -0.332031 1.0625 -0.53125 C 0.832031 -0.726562 0.648438 -0.957031 0.515625 -1.21875 C 0.390625 -1.488281 0.300781 -1.773438 0.25 -2.078125 L 2.15625 -2.078125 C 2.1875 -1.921875 2.289062 -1.773438 2.46875 -1.640625 C 2.65625 -1.515625 2.90625 -1.453125 3.21875 -1.453125 C 3.65625 -1.453125 3.953125 -1.503906 4.109375 -1.609375 C 4.273438 -1.710938 4.359375 -1.828125 4.359375 -1.953125 C 4.359375 -2.128906 4.265625 -2.253906 4.078125 -2.328125 C 3.890625 -2.398438 3.648438 -2.460938 3.359375 -2.515625 C 3.078125 -2.578125 2.769531 -2.640625 2.4375 -2.703125 C 2.101562 -2.773438 1.789062 -2.890625 1.5 -3.046875 C 1.21875 -3.203125 0.976562 -3.414062 0.78125 -3.6875 C 0.59375 -3.96875 0.5 -4.335938 0.5 -4.796875 C 0.5 -5.085938 0.554688 -5.351562 0.671875 -5.59375 C 0.796875 -5.84375 0.972656 -6.054688 1.203125 -6.234375 C 1.429688 -6.421875 1.710938 -6.566406 2.046875 -6.671875 C 2.378906 -6.773438 2.769531 -6.828125 3.21875 -6.828125 C 3.695312 -6.828125 4.109375 -6.769531 4.453125 -6.65625 C 4.796875 -6.550781 5.082031 -6.398438 5.3125 -6.203125 C 5.539062 -6.015625 5.722656 -5.796875 5.859375 -5.546875 C 5.992188 -5.296875 6.082031 -5.023438 6.125 -4.734375 L 4.234375 -4.734375 C 4.203125 -4.867188 4.113281 -4.988281 3.96875 -5.09375 C 3.820312 -5.195312 3.570312 -5.25 3.21875 -5.25 C 2.9375 -5.25 2.71875 -5.207031 2.5625 -5.125 C 2.414062 -5.039062 2.34375 -4.929688 2.34375 -4.796875 C 2.34375 -4.628906 2.4375 -4.507812 2.625 -4.4375 C 2.8125 -4.363281 3.046875 -4.296875 3.328125 -4.234375 C 3.617188 -4.171875 3.929688 -4.101562 4.265625 -4.03125 C 4.597656 -3.96875 4.90625 -3.859375 5.1875 -3.703125 C 5.476562 -3.546875 5.71875 -3.332031 5.90625 -3.0625 C 6.09375 -2.789062 6.1875 -2.421875 6.1875 -1.953125 C 6.1875 -1.691406 6.140625 -1.4375 6.046875 -1.1875 C 5.953125 -0.9375 5.789062 -0.710938 5.5625 -0.515625 C 5.332031 -0.328125 5.023438 -0.171875 4.640625 -0.046875 C 4.253906 0.0664062 3.78125 0.125 3.21875 0.125 Z M 3.21875 0.125 "/></g></g></g><g fill="#ffffff" fill-opacity="1"><g transform="translate(157.259997, 18.200739)"><g><path d="M 0.765625 -6.703125 L 2.53125 -6.703125 L 2.53125 0 L 0.765625 0 Z M 0.765625 -6.703125 "/></g></g></g></svg>