<svg xmlns="http://www.w3.org/2000/svg" xmlns:xlink="http://www.w3.org/1999/xlink" width="1080" zoomAndPan="magnify" viewBox="0 0 810 1012.49997" height="1350" preserveAspectRatio="xMidYMid meet" version="1.0"><defs><clipPath id="dc09600ff2"><path d="M 226.039062 216 L 583.609375 216 L 583.609375 711 L 226.039062 711 Z M 226.039062 216 " clip-rule="nonzero"/></clipPath></defs><path fill="#7ec8c8" d="M 248.941406 785.570312 L 240.949219 793.5625 C 239.363281 795.148438 236.875 795.394531 235.011719 794.152344 C 232.734375 792.632812 232.226562 789.503906 233.90625 787.347656 L 236.570312 783.921875 L 242.34375 776.5 L 247.292969 771.550781 L 252.238281 766.601562 L 258.011719 760.828125 L 265.433594 754.230469 L 271.207031 750.109375 L 280.28125 744.335938 L 284.816406 741.859375 C 287.835938 740.214844 290.976562 738.804688 294.21875 737.648438 L 300.898438 735.261719 L 304.390625 733.808594 C 308.648438 732.035156 313.078125 730.710938 317.609375 729.863281 L 323.988281 728.664062 L 330.894531 727.679688 C 333.984375 727.238281 337.101562 727.015625 340.222656 727.015625 L 350.503906 727.015625 C 355.898438 727.015625 361.273438 727.679688 366.503906 728.984375 L 368.523438 729.492188 L 378.417969 731.964844 L 388.316406 735.261719 L 402.335938 740.210938 L 411.40625 743.511719 L 421.304688 747.632812 L 432.023438 752.582031 L 440.273438 755.882812 L 444.03125 756.90625 C 447.566406 757.871094 451.175781 758.539062 454.824219 758.902344 L 457.589844 759.179688 L 469.960938 759.179688 L 470.4375 759.171875 C 475.945312 759.082031 481.417969 758.304688 486.730469 756.855469 L 487.28125 756.707031 L 497.175781 753.40625 L 505.421875 750.109375 L 514.496094 745.160156 L 522.742188 739.386719 L 529.339844 734.4375 L 535.9375 729.492188 L 543.359375 722.894531 L 547.050781 719.203125 C 549.488281 716.761719 553.503906 716.964844 555.6875 719.632812 L 558.289062 722.816406 C 558.710938 723.328125 558.671875 724.074219 558.203125 724.542969 L 550.78125 731.964844 L 546.660156 736.089844 L 540.886719 741.859375 L 535.9375 746.808594 L 531.8125 750.109375 L 522.742188 756.707031 L 518.617188 759.179688 L 516.144531 760.828125 L 512.019531 763.304688 L 507.074219 766.601562 L 500.476562 770.726562 L 495.527344 773.199219 L 484.804688 777.324219 L 476.558594 780.621094 C 473.269531 781.71875 469.878906 782.488281 466.433594 782.917969 L 465.011719 783.097656 L 457.589844 783.921875 L 444.394531 783.921875 L 434.5 783.097656 L 427.902344 782.273438 L 419.65625 780.621094 L 410.582031 778.148438 L 404.808594 776.5 L 399.035156 774.023438 L 389.964844 769.902344 L 380.070312 766.601562 L 377.234375 765.34375 C 374.179688 763.984375 371.027344 762.859375 367.800781 761.980469 L 363.574219 760.828125 L 357.800781 759.179688 C 354.507812 758.082031 351.125 757.28125 347.691406 756.792969 L 341.308594 755.882812 L 334.710938 755.054688 L 314.917969 755.054688 L 306.671875 755.882812 L 296.773438 757.53125 L 295.117188 758.027344 C 290.734375 759.339844 286.5 761.109375 282.484375 763.300781 L 279.453125 764.953125 L 267.085938 771.550781 L 258.835938 777.324219 Z M 248.941406 785.570312 " fill-opacity="1" fill-rule="nonzero"/><g clip-path="url(#dc09600ff2)"><path fill="#7ec8c8" d="M 230.796875 647.019531 C 230.796875 647.019531 227.789062 658.996094 226.671875 666.8125 C 209.863281 784.550781 532.820312 626.402344 532.820312 626.402344 L 544.417969 620.21875 C 544.933594 619.941406 545.425781 619.632812 545.894531 619.285156 L 547.460938 618.128906 C 549.550781 616.589844 550.78125 614.152344 550.78125 611.558594 C 550.78125 607.75 550.007812 603.980469 548.507812 600.480469 L 548.304688 600.011719 L 548.054688 599.253906 C 547.128906 596.472656 545.835938 593.828125 544.207031 591.386719 L 543.359375 590.117188 L 541.675781 587.871094 C 541.148438 587.171875 540.6875 586.421875 540.296875 585.640625 C 539.59375 584.234375 538.667969 582.953125 537.558594 581.84375 L 534.285156 578.570312 L 533.277344 577.308594 C 531.757812 575.40625 530.027344 573.679688 528.125 572.15625 L 526.863281 571.148438 L 525.46875 570.03125 C 523.65625 568.582031 521.691406 567.324219 519.613281 566.285156 L 517.792969 565.375 L 515.765625 564.363281 C 513.824219 563.390625 511.789062 562.613281 509.695312 562.042969 L 503.773438 560.425781 L 498.730469 559.417969 C 496.597656 558.992188 494.433594 558.777344 492.257812 558.777344 L 483.980469 558.777344 L 460.886719 559.601562 L 448.515625 560.425781 L 445.515625 560.425781 C 442.582031 560.425781 439.660156 560.816406 436.832031 561.589844 L 432.023438 562.902344 L 424.601562 564.550781 L 414.703125 567.023438 C 409.390625 568.621094 402.988281 566.613281 398.121094 569.285156 C 396.769531 570.023438 395.59375 571.355469 394.910156 573.621094 C 393.152344 579.492188 388.046875 579.09375 385.25 578.378906 C 384.019531 578.0625 382.699219 578.011719 381.515625 578.484375 C 378.453125 579.710938 374.398438 575.316406 371.578125 577.03125 C 370.273438 577.824219 368.488281 579.746094 366.046875 583.519531 C 365.390625 584.535156 364.785156 585.421875 364.226562 586.195312 C 361.097656 590.511719 352.054688 589.027344 347.078125 590.941406 L 338.007812 594.238281 L 332.234375 595.890625 C 331.664062 596.003906 331.382812 595.199219 331.910156 594.957031 C 342.492188 590.03125 368.578125 577.675781 322.339844 596.714844 C 277.449219 615.195312 301.253906 604.089844 312.539062 598.921875 C 314.761719 597.90625 314.800781 594.925781 314.09375 592.589844 C 313.519531 590.699219 311.984375 588.929688 310.054688 589.34375 C 296.066406 592.335938 253.761719 601.054688 314.09375 583.519531 C 370.480469 567.125 338.25 573.148438 322.667969 576.308594 C 320.207031 576.808594 318.40625 574.015625 319.863281 571.972656 C 322.242188 568.800781 320.65625 564.261719 317.015625 562.691406 C 311.605469 560.367188 308.785156 557.445312 330.585938 557.953125 C 358.609375 558.605469 345.945312 553.589844 339.402344 551.457031 C 337.386719 550.800781 335.386719 550.085938 333.589844 548.957031 C 329.304688 546.273438 323.53125 541.265625 343.78125 543.109375 C 357.890625 544.390625 358.921875 542.570312 356.644531 540.519531 C 353.742188 537.910156 352.566406 533.496094 355.328125 530.738281 C 361.195312 525.9375 371.683594 527.730469 375.753906 521.335938 C 376.292969 520.488281 375.207031 519.277344 370.996094 517.542969 C 363.558594 514.480469 366.101562 513.039062 370.128906 512.367188 C 375.515625 511.464844 380.933594 510.414062 385.742188 507.824219 L 389.140625 505.996094 L 397.386719 501.046875 L 407.28125 496.101562 L 415.53125 491.976562 L 426.25 487.027344 L 435.324219 483.730469 L 446.042969 480.429688 L 456.765625 477.132812 L 469.136719 473.832031 L 481.503906 471.359375 L 500.472656 468.058594 L 519.441406 464.761719 L 533.460938 463.9375 C 540.578125 463.9375 546.628906 458.742188 547.710938 451.710938 L 576.347656 265.183594 L 577.996094 254.460938 L 579.644531 242.089844 L 583.324219 217.816406 C 583.496094 216.6875 582.246094 215.894531 581.292969 216.527344 L 568.925781 226.421875 L 560.675781 233.019531 L 553.253906 239.617188 L 540.058594 250.339844 L 529.339844 260.234375 L 517.792969 269.308594 L 508.722656 275.90625 L 498.824219 284.152344 L 484.804688 294.871094 L 462.539062 313.839844 L 447.691406 327.859375 L 433.671875 341.878906 L 418.828125 356.726562 L 402.335938 373.21875 C 402.335938 373.21875 392.621094 382.683594 385.015625 390.539062 C 377.410156 398.394531 363.574219 413.628906 363.574219 413.628906 L 347.078125 430.949219 C 339.207031 439.902344 328.113281 454.863281 328.113281 454.863281 C 328.113281 454.863281 320.53125 465.390625 315.742188 472.183594 C 312.960938 476.125 309.386719 481.269531 306.65625 485.207031 C 303.945312 489.121094 302.238281 493.625 300.703125 498.132812 C 298.859375 503.542969 295.519531 510.121094 290.175781 510.121094 C 281.101562 510.121094 293.472656 527.4375 280.277344 527.4375 C 267.085938 527.4375 262.136719 545.582031 270.382812 545.582031 C 278.628906 545.582031 282.753906 559.601562 262.136719 561.25 C 250.957031 562.144531 249.234375 567.886719 249.996094 572.957031 C 250.847656 578.597656 256.070312 582.101562 260.042969 586.195312 C 264.511719 590.796875 266.15625 597.332031 245.640625 600.835938 C 240.207031 601.765625 236.328125 602.96875 233.644531 604.339844 C 220.496094 611.046875 235.171875 632.925781 230.796875 647.019531 Z M 230.796875 647.019531 " fill-opacity="1" fill-rule="nonzero"/></g></svg>